<svg xmlns="http://www.w3.org/2000/svg" xmlns:xlink="http://www.w3.org/1999/xlink" width="500" height="500" preserveAspectRatio="xMidYMid meet" version="1.0" viewBox="0 0 375 375" zoomAndPan="magnify"><defs><clipPath id="e75337c17a"><path d="M 94 115 L 222.988281 115 L 222.988281 262.5 L 94 262.5 Z M 94 115" clip-rule="nonzero"/></clipPath></defs><g clip-path="url(#e75337c17a)"><path fill="#38b6ff" fill-opacity="1" fill-rule="nonzero" d="M 213.222656 124.238281 C 207.414062 118.691406 199.628906 115.597656 191.605469 115.625 C 183.320312 115.65625 175.53125 118.90625 169.671875 124.777344 L 158.492188 135.976562 L 147.597656 125.058594 C 135.457031 112.894531 115.691406 112.511719 103.433594 124.5625 C 91.054688 136.722656 90.980469 156.714844 103.214844 168.96875 L 162.398438 228.273438 C 169.15625 235.042969 169.46875 246.0625 162.847656 252.960938 C 156.070312 260.015625 144.820312 260.097656 137.9375 253.203125 L 123.277344 238.515625 C 122.660156 237.894531 122.597656 236.914062 123.128906 236.214844 C 125.292969 233.363281 126.492188 229.734375 126.222656 225.828125 C 125.695312 218.117188 119.402344 211.914062 111.695312 211.511719 C 102.769531 211.046875 95.371094 218.246094 95.492188 227.113281 C 95.597656 235.328125 102.28125 242.109375 110.476562 242.316406 C 113.121094 242.382812 115.617188 241.777344 117.816406 240.660156 C 118.480469 240.320312 119.292969 240.464844 119.820312 240.992188 L 134.964844 256.171875 C 139.183594 260.402344 144.726562 262.511719 150.265625 262.511719 C 155.804688 262.511719 161.347656 260.398438 165.5625 256.171875 C 174 247.71875 174 233.964844 165.5625 225.511719 L 106.179688 166 C 95.65625 155.453125 95.65625 138.296875 106.179688 127.75 C 116.703125 117.203125 133.828125 117.203125 144.351562 127.75 L 156.957031 140.382812 C 157.378906 140.804688 157.9375 141.003906 158.492188 140.992188 C 159.050781 141.003906 159.609375 140.804688 160.03125 140.382812 L 172.386719 128 C 177.511719 122.867188 184.425781 119.84375 191.671875 119.828125 C 198.902344 119.816406 205.703125 122.628906 210.8125 127.75 C 215.917969 132.871094 218.726562 139.675781 218.714844 146.917969 C 218.707031 154.179688 215.683594 161.117188 210.558594 166.253906 L 206.566406 170.253906 C 206.238281 170.582031 205.792969 170.769531 205.328125 170.769531 L 193.425781 170.769531 C 192.765625 170.769531 192.15625 170.394531 191.863281 169.804688 L 186.113281 158.28125 C 185.46875 156.988281 183.632812 156.988281 182.992188 158.28125 L 173.109375 178.066406 C 172.464844 179.359375 170.628906 179.359375 169.984375 178.066406 L 166.613281 171.300781 C 165.96875 170.011719 164.132812 170.011719 163.488281 171.300781 L 160.113281 178.0625 C 159.472656 179.355469 157.632812 179.355469 156.992188 178.0625 L 147.117188 158.273438 C 146.476562 156.984375 144.636719 156.984375 143.996094 158.273438 L 138.246094 169.796875 C 137.949219 170.386719 137.34375 170.761719 136.683594 170.761719 L 126.148438 170.761719 C 125 170.761719 124 171.648438 123.964844 172.800781 C 123.929688 173.988281 124.882812 174.960938 126.0625 174.960938 L 139.277344 174.960938 C 139.9375 174.960938 140.542969 174.589844 140.835938 173.996094 L 143.996094 167.664062 C 144.636719 166.375 146.476562 166.375 147.117188 167.664062 L 156.992188 187.453125 C 157.632812 188.746094 159.472656 188.746094 160.113281 187.453125 L 163.488281 180.691406 C 164.132812 179.402344 165.96875 179.402344 166.613281 180.691406 L 169.984375 187.457031 C 170.628906 188.75 172.464844 188.75 173.109375 187.457031 L 182.984375 167.667969 C 183.625 166.378906 185.464844 166.375 186.105469 167.667969 L 189.265625 174 C 189.5625 174.589844 190.167969 174.964844 190.828125 174.964844 L 206.914062 174.964844 C 206.914062 174.964844 206.914062 174.964844 206.917969 174.964844 L 206.921875 174.964844 C 207.050781 174.964844 207.175781 174.953125 207.296875 174.929688 C 207.304688 174.929688 207.316406 174.925781 207.324219 174.925781 C 207.445312 174.902344 207.566406 174.867188 207.683594 174.824219 C 207.691406 174.820312 207.703125 174.816406 207.714844 174.8125 C 207.828125 174.761719 207.941406 174.703125 208.046875 174.636719 C 208.054688 174.628906 208.066406 174.625 208.078125 174.621094 C 208.1875 174.542969 208.292969 174.457031 208.390625 174.363281 C 208.394531 174.359375 208.394531 174.359375 208.398438 174.355469 L 213.46875 169.273438 C 219.472656 163.261719 222.972656 155.117188 222.910156 146.613281 C 222.839844 138.105469 219.398438 130.136719 213.222656 124.238281 Z M 99.683594 226.90625 C 99.683594 220.71875 104.707031 215.691406 110.875 215.691406 C 117.042969 215.691406 122.066406 220.722656 122.066406 226.90625 C 122.066406 233.089844 117.042969 238.117188 110.875 238.117188 C 104.707031 238.117188 99.683594 233.089844 99.683594 226.90625 Z M 99.683594 226.90625"/></g><g fill="#000" fill-opacity="1"><g><g><path d="M 19.71875 0 L 17.140625 0 L 17.109375 -12.390625 L 11.875 -1.734375 L 10.046875 -1.734375 L 4.8125 -12.390625 L 4.8125 0 L 2.1875 0 L 2.1875 -16.59375 L 5.5 -16.59375 L 10.96875 -5.5625 L 16.421875 -16.59375 L 19.71875 -16.59375 Z M 19.71875 0" transform="translate(154.35767, 210.629943)"/></g></g></g><g fill="#000" fill-opacity="1"><g><g><path d="M 14.03125 -14.078125 L 4.984375 -14.078125 L 4.984375 -9.59375 L 13.078125 -9.59375 L 13.078125 -7.09375 L 4.984375 -7.09375 L 4.984375 -2.515625 L 14.3125 -2.515625 L 14.3125 0 L 2.1875 0 L 2.1875 -16.59375 L 14.03125 -16.59375 Z M 14.03125 -14.078125" transform="translate(179.428012, 210.629943)"/></g></g></g><g fill="#000" fill-opacity="1"><g><g><path d="M 2.1875 -16.59375 L 8.984375 -16.59375 C 11.460938 -16.59375 13.507812 -15.8125 15.125 -14.25 C 16.75 -12.6875 17.5625 -10.703125 17.5625 -8.296875 C 17.5625 -5.890625 16.75 -3.90625 15.125 -2.34375 C 13.5 -0.78125 11.425781 0 8.90625 0 L 2.1875 0 Z M 4.984375 -14.078125 L 4.984375 -2.515625 L 9.046875 -2.515625 C 10.679688 -2.515625 12.039062 -3.054688 13.125 -4.140625 C 14.207031 -5.222656 14.75 -6.597656 14.75 -8.265625 C 14.75 -9.941406 14.191406 -11.328125 13.078125 -12.421875 C 11.960938 -13.523438 10.582031 -14.078125 8.9375 -14.078125 Z M 4.984375 -14.078125" transform="translate(198.124315, 210.629943)"/></g></g></g><g fill="#000" fill-opacity="1"><g><g><path d="M 4.984375 0 L 2.1875 0 L 2.1875 -16.59375 L 4.984375 -16.59375 Z M 4.984375 0" transform="translate(219.640362, 210.629943)"/></g></g></g><g fill="#000" fill-opacity="1"><g><g><path d="M 9.53125 -16.65625 C 10.695312 -16.65625 11.835938 -16.429688 12.953125 -15.984375 C 14.066406 -15.535156 15.023438 -14.910156 15.828125 -14.109375 L 14.203125 -12.0625 C 13.597656 -12.707031 12.882812 -13.21875 12.0625 -13.59375 C 11.238281 -13.976562 10.410156 -14.171875 9.578125 -14.171875 C 7.921875 -14.171875 6.519531 -13.601562 5.375 -12.46875 C 4.226562 -11.34375 3.65625 -9.96875 3.65625 -8.34375 C 3.65625 -6.695312 4.226562 -5.304688 5.375 -4.171875 C 6.519531 -3.046875 7.921875 -2.484375 9.578125 -2.484375 C 11.296875 -2.484375 12.835938 -3.140625 14.203125 -4.453125 L 15.859375 -2.609375 C 15.003906 -1.765625 14.007812 -1.097656 12.875 -0.609375 C 11.738281 -0.117188 10.59375 0.125 9.4375 0.125 C 7 0.125 4.953125 -0.679688 3.296875 -2.296875 C 1.640625 -3.921875 0.8125 -5.925781 0.8125 -8.3125 C 0.8125 -10.664062 1.648438 -12.644531 3.328125 -14.25 C 5.015625 -15.851562 7.082031 -16.65625 9.53125 -16.65625 Z M 9.53125 -16.65625" transform="translate(229.948501, 210.629943)"/></g></g></g><g fill="#000" fill-opacity="1"><g><g><path d="M 12.890625 -3.75 L 4.53125 -3.75 L 2.9375 0 L 0.03125 0 L 7.34375 -16.59375 L 10.21875 -16.59375 L 17.46875 0 L 14.484375 0 Z M 11.828125 -6.234375 L 8.703125 -13.609375 L 5.5625 -6.234375 Z M 11.828125 -6.234375" transform="translate(249.616305, 210.629943)"/></g></g></g><g fill="#000" fill-opacity="1"><g><g><path d="M 4.984375 -2.53125 L 12.15625 -2.53125 L 12.15625 0 L 2.1875 0 L 2.1875 -16.59375 L 4.984375 -16.59375 Z M 4.984375 -2.53125" transform="translate(270.255621, 210.629943)"/></g></g></g><g fill="#000" fill-opacity="1"><g><g><path d="M 5.40625 -11.828125 C 6.925781 -11.828125 8.296875 -11.425781 9.515625 -10.625 L 8.6875 -8.875 C 7.488281 -9.601562 6.34375 -9.96875 5.25 -9.96875 C 4.65625 -9.96875 4.1875 -9.859375 3.84375 -9.640625 C 3.507812 -9.429688 3.34375 -9.128906 3.34375 -8.734375 C 3.34375 -8.347656 3.5 -8.015625 3.8125 -7.734375 C 4.125 -7.460938 4.515625 -7.265625 4.984375 -7.140625 C 5.453125 -7.015625 5.957031 -6.851562 6.5 -6.65625 C 7.050781 -6.457031 7.5625 -6.25 8.03125 -6.03125 C 8.507812 -5.8125 8.898438 -5.46875 9.203125 -5 C 9.515625 -4.539062 9.671875 -3.984375 9.671875 -3.328125 C 9.671875 -2.296875 9.257812 -1.472656 8.4375 -0.859375 C 7.613281 -0.242188 6.546875 0.0625 5.234375 0.0625 C 4.335938 0.0625 3.46875 -0.101562 2.625 -0.4375 C 1.789062 -0.769531 1.0625 -1.222656 0.4375 -1.796875 L 1.296875 -3.5 C 1.890625 -2.957031 2.539062 -2.535156 3.25 -2.234375 C 3.957031 -1.941406 4.628906 -1.796875 5.265625 -1.796875 C 5.960938 -1.796875 6.503906 -1.921875 6.890625 -2.171875 C 7.273438 -2.421875 7.46875 -2.769531 7.46875 -3.21875 C 7.46875 -3.625 7.3125 -3.960938 7 -4.234375 C 6.6875 -4.503906 6.296875 -4.703125 5.828125 -4.828125 C 5.359375 -4.960938 4.847656 -5.125 4.296875 -5.3125 C 3.742188 -5.5 3.234375 -5.691406 2.765625 -5.890625 C 2.296875 -6.097656 1.90625 -6.429688 1.59375 -6.890625 C 1.28125 -7.347656 1.125 -7.90625 1.125 -8.5625 C 1.125 -9.550781 1.515625 -10.34375 2.296875 -10.9375 C 3.078125 -11.53125 4.113281 -11.828125 5.40625 -11.828125 Z M 5.40625 -11.828125" transform="translate(174.297216, 232.014755)"/></g></g></g><g fill="#000" fill-opacity="1"><g><g><path d="M 2.359375 -10.09375 C 3.554688 -11.226562 5.035156 -11.796875 6.796875 -11.796875 C 8.554688 -11.796875 10.03125 -11.226562 11.21875 -10.09375 C 12.414062 -8.957031 13.015625 -7.550781 13.015625 -5.875 C 13.015625 -4.195312 12.414062 -2.785156 11.21875 -1.640625 C 10.03125 -0.492188 8.554688 0.078125 6.796875 0.078125 C 5.035156 0.078125 3.554688 -0.492188 2.359375 -1.640625 C 1.171875 -2.785156 0.578125 -4.195312 0.578125 -5.875 C 0.578125 -7.550781 1.171875 -8.957031 2.359375 -10.09375 Z M 6.8125 -10.015625 C 5.644531 -10.015625 4.644531 -9.613281 3.8125 -8.8125 C 2.988281 -8.019531 2.578125 -7.039062 2.578125 -5.875 C 2.578125 -4.707031 2.992188 -3.71875 3.828125 -2.90625 C 4.660156 -2.09375 5.65625 -1.6875 6.8125 -1.6875 C 7.96875 -1.6875 8.953125 -2.09375 9.765625 -2.90625 C 10.578125 -3.71875 10.984375 -4.707031 10.984375 -5.875 C 10.984375 -7.039062 10.578125 -8.019531 9.765625 -8.8125 C 8.953125 -9.613281 7.96875 -10.015625 6.8125 -10.015625 Z M 6.8125 -10.015625" transform="translate(184.7352, 232.014755)"/></g></g></g><g fill="#000" fill-opacity="1"><g><g><path d="M 3.53125 -1.796875 L 8.609375 -1.796875 L 8.609375 0 L 1.546875 0 L 1.546875 -11.75 L 3.53125 -11.75 Z M 3.53125 -1.796875" transform="translate(198.328079, 232.014755)"/></g></g></g><g fill="#000" fill-opacity="1"><g><g><path d="M 11.53125 -11.75 L 11.53125 -4.859375 C 11.53125 -3.328125 11.078125 -2.117188 10.171875 -1.234375 C 9.265625 -0.359375 8.015625 0.078125 6.421875 0.078125 C 4.835938 0.078125 3.585938 -0.359375 2.671875 -1.234375 C 1.765625 -2.117188 1.3125 -3.328125 1.3125 -4.859375 L 1.3125 -11.75 L 3.296875 -11.75 L 3.296875 -4.859375 C 3.296875 -3.878906 3.578125 -3.101562 4.140625 -2.53125 C 4.703125 -1.96875 5.46875 -1.6875 6.4375 -1.6875 C 7.40625 -1.6875 8.164062 -1.96875 8.71875 -2.53125 C 9.269531 -3.09375 9.546875 -3.867188 9.546875 -4.859375 L 9.546875 -11.75 Z M 11.53125 -11.75" transform="translate(207.289306, 232.014755)"/></g></g></g><g fill="#000" fill-opacity="1"><g><g><path d="M 9.5625 -9.96875 L 5.84375 -9.96875 L 5.84375 0 L 3.859375 0 L 3.859375 -9.96875 L 0.15625 -9.96875 L 0.15625 -11.75 L 9.5625 -11.75 Z M 9.5625 -9.96875" transform="translate(220.110247, 232.014755)"/></g></g></g><g fill="#000" fill-opacity="1"><g><g><path d="M 3.53125 0 L 1.546875 0 L 1.546875 -11.75 L 3.53125 -11.75 Z M 3.53125 0" transform="translate(229.826635, 232.014755)"/></g></g></g><g fill="#000" fill-opacity="1"><g><g><path d="M 2.359375 -10.09375 C 3.554688 -11.226562 5.035156 -11.796875 6.796875 -11.796875 C 8.554688 -11.796875 10.03125 -11.226562 11.21875 -10.09375 C 12.414062 -8.957031 13.015625 -7.550781 13.015625 -5.875 C 13.015625 -4.195312 12.414062 -2.785156 11.21875 -1.640625 C 10.03125 -0.492188 8.554688 0.078125 6.796875 0.078125 C 5.035156 0.078125 3.554688 -0.492188 2.359375 -1.640625 C 1.171875 -2.785156 0.578125 -4.195312 0.578125 -5.875 C 0.578125 -7.550781 1.171875 -8.957031 2.359375 -10.09375 Z M 6.8125 -10.015625 C 5.644531 -10.015625 4.644531 -9.613281 3.8125 -8.8125 C 2.988281 -8.019531 2.578125 -7.039062 2.578125 -5.875 C 2.578125 -4.707031 2.992188 -3.71875 3.828125 -2.90625 C 4.660156 -2.09375 5.65625 -1.6875 6.8125 -1.6875 C 7.96875 -1.6875 8.953125 -2.09375 9.765625 -2.90625 C 10.578125 -3.71875 10.984375 -4.707031 10.984375 -5.875 C 10.984375 -7.039062 10.578125 -8.019531 9.765625 -8.8125 C 8.953125 -9.613281 7.96875 -10.015625 6.8125 -10.015625 Z M 6.8125 -10.015625" transform="translate(234.894594, 232.014755)"/></g></g></g><g fill="#000" fill-opacity="1"><g><g><path d="M 11.734375 0 L 9.78125 0 L 3.53125 -8.421875 L 3.53125 0 L 1.546875 0 L 1.546875 -11.75 L 3.484375 -11.75 L 9.78125 -3.3125 L 9.78125 -11.75 L 11.734375 -11.75 Z M 11.734375 0" transform="translate(248.487473, 232.014755)"/></g></g></g><g fill="#000" fill-opacity="1"><g><g><path d="M 5.40625 -11.828125 C 6.925781 -11.828125 8.296875 -11.425781 9.515625 -10.625 L 8.6875 -8.875 C 7.488281 -9.601562 6.34375 -9.96875 5.25 -9.96875 C 4.65625 -9.96875 4.1875 -9.859375 3.84375 -9.640625 C 3.507812 -9.429688 3.34375 -9.128906 3.34375 -8.734375 C 3.34375 -8.347656 3.5 -8.015625 3.8125 -7.734375 C 4.125 -7.460938 4.515625 -7.265625 4.984375 -7.140625 C 5.453125 -7.015625 5.957031 -6.851562 6.5 -6.65625 C 7.050781 -6.457031 7.5625 -6.25 8.03125 -6.03125 C 8.507812 -5.8125 8.898438 -5.46875 9.203125 -5 C 9.515625 -4.539062 9.671875 -3.984375 9.671875 -3.328125 C 9.671875 -2.296875 9.257812 -1.472656 8.4375 -0.859375 C 7.613281 -0.242188 6.546875 0.0625 5.234375 0.0625 C 4.335938 0.0625 3.46875 -0.101562 2.625 -0.4375 C 1.789062 -0.769531 1.0625 -1.222656 0.4375 -1.796875 L 1.296875 -3.5 C 1.890625 -2.957031 2.539062 -2.535156 3.25 -2.234375 C 3.957031 -1.941406 4.628906 -1.796875 5.265625 -1.796875 C 5.960938 -1.796875 6.503906 -1.921875 6.890625 -2.171875 C 7.273438 -2.421875 7.46875 -2.769531 7.46875 -3.21875 C 7.46875 -3.625 7.3125 -3.960938 7 -4.234375 C 6.6875 -4.503906 6.296875 -4.703125 5.828125 -4.828125 C 5.359375 -4.960938 4.847656 -5.125 4.296875 -5.3125 C 3.742188 -5.5 3.234375 -5.691406 2.765625 -5.890625 C 2.296875 -6.097656 1.90625 -6.429688 1.59375 -6.890625 C 1.28125 -7.347656 1.125 -7.90625 1.125 -8.5625 C 1.125 -9.550781 1.515625 -10.34375 2.296875 -10.9375 C 3.078125 -11.53125 4.113281 -11.828125 5.40625 -11.828125 Z M 5.40625 -11.828125" transform="translate(261.778285, 232.014755)"/></g></g></g></svg>