<svg xmlns="http://www.w3.org/2000/svg" xmlns:xlink="http://www.w3.org/1999/xlink" width="700" zoomAndPan="magnify" viewBox="0 0 525 525.000007" height="700" preserveAspectRatio="xMidYMid meet" version="1.0"><defs><g/><clipPath id="dd533cdb37"><path d="M 11.769531 0 L 410 0 L 410 397 L 11.769531 397 Z M 11.769531 0 " clip-rule="nonzero"/></clipPath><clipPath id="27fe99a9bd"><path d="M 189 279 L 368 279 L 368 449.359375 L 189 449.359375 Z M 189 279 " clip-rule="nonzero"/></clipPath></defs><g clip-path="url(#dd533cdb37)"><path fill="#5ce1e6" d="M 338.753906 275.132812 C 359.621094 275.132812 376.59375 292.101562 376.59375 312.960938 C 376.59375 333.820312 359.621094 350.792969 338.753906 350.792969 C 317.886719 350.792969 300.914062 333.820312 300.914062 312.960938 C 300.914062 292.101562 317.886719 275.132812 338.753906 275.132812 Z M 242.101562 -13.59375 C 225.054688 -6.035156 213.210938 6.578125 207.851562 22.878906 C 201.761719 41.414062 203.644531 61.976562 213.144531 80.78125 C 217.914062 90.214844 223.992188 98.890625 230.316406 107.6875 C 236.492188 116.261719 243.125 125.023438 250.019531 133.722656 C 250.273438 134.046875 250.578125 134.308594 250.914062 134.496094 C 268.488281 160.78125 277.773438 191.425781 277.773438 223.171875 C 277.773438 241.886719 274.570312 260.199219 268.246094 277.625 L 259.933594 277.625 L 259.933594 178.285156 L 187.289062 178.285156 L 187.289062 277.625 L 82.699219 277.625 L 82.699219 352.152344 L 187.289062 352.152344 L 187.289062 367.136719 C 165.597656 377.59375 142.300781 382.890625 118.015625 382.890625 C 80.261719 382.890625 43.628906 369.484375 14.867188 345.136719 L 11.898438 348.09375 C 13.34375 349.816406 14.890625 351.566406 16.480469 353.292969 L 16.605469 353.410156 C 46.933594 381.292969 86.339844 396.648438 127.5625 396.648438 C 149.257812 396.648438 170.332031 392.480469 190.195312 384.257812 C 212.371094 375.085938 232.671875 360.816406 248.894531 342.984375 C 265.195312 325.066406 277.507812 303.402344 284.496094 280.339844 C 289.164062 264.972656 291.53125 248.953125 291.53125 232.707031 C 291.53125 193.234375 277.289062 155.105469 251.441406 125.332031 C 244.695312 116.691406 238.324219 108.132812 232.503906 99.898438 C 225.703125 90.28125 220.367188 82.023438 216.429688 72.976562 C 207.574219 52.644531 208.898438 28.667969 219.808594 11.894531 C 227.714844 -0.253906 243.078125 -9.53125 260.910156 -12.917969 C 277.238281 -16.019531 296.605469 -14.566406 314.066406 -8.933594 C 353.40625 3.757812 375.578125 44.011719 385.292969 66.878906 C 400.070312 101.652344 405.714844 141.746094 401.625 182.828125 C 398.921875 209.933594 389.90625 247.621094 362.410156 274.054688 C 355.507812 269.84375 347.410156 267.421875 338.753906 267.421875 C 313.636719 267.421875 293.203125 287.851562 293.203125 312.960938 C 293.203125 338.074219 313.636719 358.503906 338.753906 358.503906 C 363.871094 358.503906 384.304688 338.074219 384.304688 312.960938 C 384.304688 298.804688 377.808594 286.132812 367.640625 277.777344 C 370.394531 275.082031 372.984375 272.316406 375.320312 269.519531 C 395.753906 245.105469 407.371094 210.132812 408.921875 168.371094 C 410.578125 123.777344 401.546875 81.855469 382.804688 47.144531 C 373.078125 29.132812 361.292969 14.21875 347.757812 2.816406 C 333.605469 -9.105469 316.441406 -16.542969 296.742188 -19.28125 C 275.621094 -22.21875 257.238281 -20.304688 242.101562 -13.59375 " fill-opacity="1" fill-rule="nonzero"/></g><g clip-path="url(#27fe99a9bd)"><path fill="#000000" d="M 338.753906 283.949219 C 322.726562 283.949219 309.738281 296.941406 309.738281 312.960938 C 309.738281 328.984375 322.726562 341.972656 338.753906 341.972656 C 354.78125 341.972656 367.769531 328.984375 367.769531 312.960938 C 367.769531 296.941406 354.78125 283.949219 338.753906 283.949219 Z M 300.21875 279.730469 L 294.601562 279.730469 C 288.300781 306.308594 275.441406 330.351562 257.824219 350.046875 L 303.917969 350.046875 C 294.035156 340.769531 287.859375 327.585938 287.859375 312.957031 C 287.859375 300.261719 292.511719 288.644531 300.21875 279.730469 Z M 189.390625 449.390625 L 189.390625 395.457031 C 216 386.375 239.492188 370.570312 257.828125 350.054688 L 257.828125 449.390625 L 189.390625 449.390625 " fill-opacity="1" fill-rule="nonzero"/></g><g fill="#5ce1e6" fill-opacity="1"><g transform="translate(187.67717, 506.072179)"><g><path d="M 3.03125 -9.0625 L 3.03125 -5.453125 L 8.21875 -5.453125 L 8.21875 -4.1875 L 3.03125 -4.1875 L 3.03125 0 L 1.546875 0 L 1.546875 -10.34375 L 8.859375 -10.34375 L 8.859375 -9.0625 Z M 3.03125 -9.0625 "/></g></g></g><g fill="#5ce1e6" fill-opacity="1"><g transform="translate(200.899367, 506.072179)"><g><path d="M 8.140625 -2.59375 L 2.640625 -2.59375 L 1.5 0 L -0.015625 0 L 4.671875 -10.34375 L 6.140625 -10.34375 L 10.828125 0 L 9.28125 0 Z M 7.625 -3.765625 L 5.390625 -8.84375 L 3.15625 -3.765625 Z M 7.625 -3.765625 "/></g></g></g><g fill="#5ce1e6" fill-opacity="1"><g transform="translate(215.55427, 506.072179)"><g><path d="M 11.140625 0 L 11.125 -7.53125 L 7.390625 -1.25 L 6.703125 -1.25 L 2.96875 -7.5 L 2.96875 0 L 1.546875 0 L 1.546875 -10.34375 L 2.765625 -10.34375 L 7.078125 -3.078125 L 11.34375 -10.34375 L 12.546875 -10.34375 L 12.5625 0 Z M 11.140625 0 "/></g></g></g><g fill="#5ce1e6" fill-opacity="1"><g transform="translate(233.502924, 506.072179)"><g><path d="M 1.546875 -10.34375 L 3.03125 -10.34375 L 3.03125 0 L 1.546875 0 Z M 1.546875 -10.34375 "/></g></g></g><g fill="#5ce1e6" fill-opacity="1"><g transform="translate(241.924813, 506.072179)"><g><path d="M 1.546875 -10.34375 L 3.03125 -10.34375 L 3.03125 -1.28125 L 8.625 -1.28125 L 8.625 0 L 1.546875 0 Z M 1.546875 -10.34375 "/></g></g></g><g fill="#5ce1e6" fill-opacity="1"><g transform="translate(254.541437, 506.072179)"><g><path d="M 5.515625 -3.578125 L 5.515625 0 L 4.046875 0 L 4.046875 -3.609375 L -0.0625 -10.34375 L 1.515625 -10.34375 L 4.828125 -4.890625 L 8.15625 -10.34375 L 9.625 -10.34375 Z M 5.515625 -3.578125 "/></g></g></g><g fill="#5ce1e6" fill-opacity="1"><g transform="translate(267.940864, 506.072179)"><g/></g></g><g fill="#5ce1e6" fill-opacity="1"><g transform="translate(275.757164, 506.072179)"><g><path d="M 1.546875 -10.34375 L 5.90625 -10.34375 C 7 -10.34375 7.96875 -10.125 8.8125 -9.6875 C 9.664062 -9.257812 10.328125 -8.65625 10.796875 -7.875 C 11.265625 -7.09375 11.5 -6.191406 11.5 -5.171875 C 11.5 -4.160156 11.265625 -3.257812 10.796875 -2.46875 C 10.328125 -1.6875 9.664062 -1.078125 8.8125 -0.640625 C 7.96875 -0.210938 7 0 5.90625 0 L 1.546875 0 Z M 5.828125 -1.28125 C 6.660156 -1.28125 7.394531 -1.441406 8.03125 -1.765625 C 8.664062 -2.097656 9.15625 -2.554688 9.5 -3.140625 C 9.84375 -3.722656 10.015625 -4.398438 10.015625 -5.171875 C 10.015625 -5.941406 9.84375 -6.617188 9.5 -7.203125 C 9.15625 -7.785156 8.664062 -8.238281 8.03125 -8.5625 C 7.394531 -8.894531 6.660156 -9.0625 5.828125 -9.0625 L 3.03125 -9.0625 L 3.03125 -1.28125 Z M 5.828125 -1.28125 "/></g></g></g><g fill="#5ce1e6" fill-opacity="1"><g transform="translate(291.80046, 506.072179)"><g><path d="M 6.21875 0.125 C 5.175781 0.125 4.234375 -0.101562 3.390625 -0.5625 C 2.554688 -1.019531 1.898438 -1.65625 1.421875 -2.46875 C 0.941406 -3.28125 0.703125 -4.179688 0.703125 -5.171875 C 0.703125 -6.171875 0.941406 -7.070312 1.421875 -7.875 C 1.898438 -8.6875 2.554688 -9.320312 3.390625 -9.78125 C 4.234375 -10.238281 5.175781 -10.46875 6.21875 -10.46875 C 7.257812 -10.46875 8.195312 -10.238281 9.03125 -9.78125 C 9.863281 -9.320312 10.515625 -8.691406 10.984375 -7.890625 C 11.460938 -7.085938 11.703125 -6.179688 11.703125 -5.171875 C 11.703125 -4.171875 11.460938 -3.265625 10.984375 -2.453125 C 10.515625 -1.648438 9.863281 -1.019531 9.03125 -0.5625 C 8.195312 -0.101562 7.257812 0.125 6.21875 0.125 Z M 6.21875 -1.203125 C 6.976562 -1.203125 7.660156 -1.375 8.265625 -1.71875 C 8.867188 -2.0625 9.347656 -2.535156 9.703125 -3.140625 C 10.054688 -3.742188 10.234375 -4.421875 10.234375 -5.171875 C 10.234375 -5.921875 10.054688 -6.597656 9.703125 -7.203125 C 9.347656 -7.804688 8.867188 -8.28125 8.265625 -8.625 C 7.660156 -8.976562 6.976562 -9.15625 6.21875 -9.15625 C 5.457031 -9.15625 4.769531 -8.976562 4.15625 -8.625 C 3.539062 -8.28125 3.054688 -7.804688 2.703125 -7.203125 C 2.359375 -6.597656 2.1875 -5.921875 2.1875 -5.171875 C 2.1875 -4.421875 2.359375 -3.742188 2.703125 -3.140625 C 3.054688 -2.535156 3.539062 -2.0625 4.15625 -1.71875 C 4.769531 -1.375 5.457031 -1.203125 6.21875 -1.203125 Z M 6.21875 -1.203125 "/></g></g></g><g fill="#5ce1e6" fill-opacity="1"><g transform="translate(308.05054, 506.072179)"><g><path d="M 6.171875 0.125 C 5.140625 0.125 4.207031 -0.101562 3.375 -0.5625 C 2.539062 -1.019531 1.882812 -1.648438 1.40625 -2.453125 C 0.9375 -3.265625 0.703125 -4.171875 0.703125 -5.171875 C 0.703125 -6.179688 0.9375 -7.085938 1.40625 -7.890625 C 1.882812 -8.691406 2.539062 -9.320312 3.375 -9.78125 C 4.21875 -10.238281 5.15625 -10.46875 6.1875 -10.46875 C 7 -10.46875 7.738281 -10.332031 8.40625 -10.0625 C 9.082031 -9.789062 9.65625 -9.390625 10.125 -8.859375 L 9.171875 -7.921875 C 8.390625 -8.742188 7.414062 -9.15625 6.25 -9.15625 C 5.476562 -9.15625 4.78125 -8.976562 4.15625 -8.625 C 3.539062 -8.28125 3.054688 -7.804688 2.703125 -7.203125 C 2.359375 -6.597656 2.1875 -5.921875 2.1875 -5.171875 C 2.1875 -4.421875 2.359375 -3.742188 2.703125 -3.140625 C 3.054688 -2.535156 3.539062 -2.0625 4.15625 -1.71875 C 4.78125 -1.375 5.476562 -1.203125 6.25 -1.203125 C 7.40625 -1.203125 8.378906 -1.613281 9.171875 -2.4375 L 10.125 -1.5 C 9.65625 -0.96875 9.082031 -0.5625 8.40625 -0.28125 C 7.726562 -0.0078125 6.984375 0.125 6.171875 0.125 Z M 6.171875 0.125 "/></g></g></g><g fill="#5ce1e6" fill-opacity="1"><g transform="translate(322.572506, 506.072179)"><g><path d="M 3.609375 -9.0625 L 0.0625 -9.0625 L 0.0625 -10.34375 L 8.625 -10.34375 L 8.625 -9.0625 L 5.0625 -9.0625 L 5.0625 0 L 3.609375 0 Z M 3.609375 -9.0625 "/></g></g></g><g fill="#5ce1e6" fill-opacity="1"><g transform="translate(335.085738, 506.072179)"><g><path d="M 6.21875 0.125 C 5.175781 0.125 4.234375 -0.101562 3.390625 -0.5625 C 2.554688 -1.019531 1.898438 -1.65625 1.421875 -2.46875 C 0.941406 -3.28125 0.703125 -4.179688 0.703125 -5.171875 C 0.703125 -6.171875 0.941406 -7.070312 1.421875 -7.875 C 1.898438 -8.6875 2.554688 -9.320312 3.390625 -9.78125 C 4.234375 -10.238281 5.175781 -10.46875 6.21875 -10.46875 C 7.257812 -10.46875 8.195312 -10.238281 9.03125 -9.78125 C 9.863281 -9.320312 10.515625 -8.691406 10.984375 -7.890625 C 11.460938 -7.085938 11.703125 -6.179688 11.703125 -5.171875 C 11.703125 -4.171875 11.460938 -3.265625 10.984375 -2.453125 C 10.515625 -1.648438 9.863281 -1.019531 9.03125 -0.5625 C 8.195312 -0.101562 7.257812 0.125 6.21875 0.125 Z M 6.21875 -1.203125 C 6.976562 -1.203125 7.660156 -1.375 8.265625 -1.71875 C 8.867188 -2.0625 9.347656 -2.535156 9.703125 -3.140625 C 10.054688 -3.742188 10.234375 -4.421875 10.234375 -5.171875 C 10.234375 -5.921875 10.054688 -6.597656 9.703125 -7.203125 C 9.347656 -7.804688 8.867188 -8.28125 8.265625 -8.625 C 7.660156 -8.976562 6.976562 -9.15625 6.21875 -9.15625 C 5.457031 -9.15625 4.769531 -8.976562 4.15625 -8.625 C 3.539062 -8.28125 3.054688 -7.804688 2.703125 -7.203125 C 2.359375 -6.597656 2.1875 -5.921875 2.1875 -5.171875 C 2.1875 -4.421875 2.359375 -3.742188 2.703125 -3.140625 C 3.054688 -2.535156 3.539062 -2.0625 4.15625 -1.71875 C 4.769531 -1.375 5.457031 -1.203125 6.21875 -1.203125 Z M 6.21875 -1.203125 "/></g></g></g><g fill="#5ce1e6" fill-opacity="1"><g transform="translate(351.335825, 506.072179)"><g><path d="M 8.46875 0 L 6.234375 -3.171875 C 5.960938 -3.148438 5.75 -3.140625 5.59375 -3.140625 L 3.03125 -3.140625 L 3.03125 0 L 1.546875 0 L 1.546875 -10.34375 L 5.59375 -10.34375 C 6.925781 -10.34375 7.976562 -10.019531 8.75 -9.375 C 9.519531 -8.738281 9.90625 -7.859375 9.90625 -6.734375 C 9.90625 -5.941406 9.707031 -5.265625 9.3125 -4.703125 C 8.914062 -4.140625 8.351562 -3.726562 7.625 -3.46875 L 10.078125 0 Z M 5.546875 -4.40625 C 6.484375 -4.40625 7.195312 -4.601562 7.6875 -5 C 8.175781 -5.40625 8.421875 -5.984375 8.421875 -6.734375 C 8.421875 -7.484375 8.175781 -8.054688 7.6875 -8.453125 C 7.195312 -8.859375 6.484375 -9.0625 5.546875 -9.0625 L 3.03125 -9.0625 L 3.03125 -4.40625 Z M 5.546875 -4.40625 "/></g></g></g><g fill="#5ce1e6" fill-opacity="1"><g transform="translate(74.395164, 459.262735)"><g><path d="M 67.730469 -37.882812 C 67.589844 -38.019531 67.382812 -38.019531 67.246094 -38.019531 C 67.039062 -38.019531 66.898438 -38.019531 66.761719 -37.949219 C 66.414062 -37.882812 66.136719 -37.742188 65.929688 -37.605469 L 64.335938 -36.773438 C 64.058594 -36.636719 63.78125 -36.496094 63.4375 -36.359375 C 62.742188 -36.011719 61.980469 -35.597656 61.289062 -35.25 C 60.25 -34.765625 59.140625 -34.351562 58.035156 -34.003906 C 56.996094 -33.65625 55.886719 -33.519531 54.78125 -33.65625 C 54.226562 -33.726562 53.671875 -33.863281 53.253906 -34.140625 C 52.769531 -34.417969 52.355469 -34.835938 52.007812 -35.25 C 51.457031 -36.082031 51.039062 -36.910156 50.695312 -37.882812 C 50.625 -38.019531 50.554688 -38.160156 50.484375 -38.296875 C 50.140625 -39.40625 49.515625 -40.445312 48.824219 -41.414062 C 48.132812 -42.3125 47.300781 -43.214844 46.398438 -43.90625 C 44.390625 -45.429688 42.175781 -46.121094 39.683594 -45.914062 C 37.257812 -45.636719 35.113281 -44.667969 33.242188 -43.074219 C 31.511719 -41.484375 29.988281 -39.683594 28.738281 -37.742188 L 27.769531 -36.289062 C 27.425781 -35.804688 27.078125 -35.320312 26.871094 -34.765625 C 26.800781 -34.765625 26.800781 -34.765625 26.800781 -34.765625 C 26.59375 -34.210938 26.316406 -33.796875 25.96875 -33.449219 C 25.691406 -33.101562 25.277344 -32.894531 24.863281 -32.824219 C 24.308594 -33.726562 23.960938 -34.765625 23.824219 -35.941406 C 23.824219 -36.011719 23.824219 -36.011719 23.824219 -36.011719 C 23.753906 -36.21875 23.753906 -36.425781 23.683594 -36.636719 C 23.617188 -37.050781 23.476562 -37.464844 23.40625 -37.882812 C 23.339844 -38.089844 23.339844 -38.296875 23.269531 -38.4375 C 23.199219 -38.851562 23.0625 -39.265625 22.992188 -39.75 C 22.785156 -40.996094 22.300781 -42.246094 21.605469 -43.351562 C 21.191406 -43.976562 20.707031 -44.390625 20.082031 -44.808594 C 19.53125 -45.152344 18.90625 -45.359375 18.214844 -45.5 C 17.589844 -45.707031 16.898438 -45.707031 16.207031 -45.707031 C 15.511719 -45.636719 14.890625 -45.429688 14.265625 -45.152344 C 13.019531 -44.460938 12.050781 -43.558594 11.289062 -42.523438 L 9.003906 -39.472656 C 8.308594 -38.4375 7.617188 -37.328125 6.996094 -36.21875 C 6.578125 -35.527344 6.09375 -34.765625 5.679688 -34.074219 C 5.472656 -33.726562 5.261719 -33.378906 4.984375 -33.035156 L 4.5 -32.203125 C 4.5 -32.132812 4.433594 -32.0625 4.363281 -31.996094 C 4.292969 -31.789062 4.15625 -31.648438 4.085938 -31.511719 C 4.085938 -31.511719 4.085938 -31.511719 4.015625 -31.511719 C 4.015625 -31.511719 4.015625 -31.578125 4.015625 -31.648438 L 4.015625 -32.132812 C 3.949219 -33.3125 4.015625 -34.558594 4.15625 -35.804688 L 4.292969 -37.742188 C 4.292969 -38.019531 4.292969 -38.367188 4.292969 -38.644531 C 4.292969 -38.921875 4.363281 -39.265625 4.363281 -39.613281 C 4.433594 -40.652344 4.5 -41.757812 4.640625 -42.796875 C 4.777344 -44.253906 4.847656 -45.707031 4.917969 -47.160156 C 4.984375 -47.785156 4.984375 -48.476562 4.917969 -49.101562 C 4.917969 -49.101562 4.917969 -49.101562 4.917969 -49.167969 C 4.917969 -49.792969 4.847656 -50.417969 4.640625 -51.109375 C 4.5 -51.457031 4.292969 -51.800781 4.015625 -52.078125 C 3.671875 -52.355469 3.394531 -52.5625 3.046875 -52.703125 C 2.285156 -52.910156 1.59375 -53.046875 0.96875 -52.980469 L 0.832031 -52.980469 L 0.691406 -52.910156 C 0.625 -52.839844 0.554688 -52.839844 0.414062 -52.769531 C 0.347656 -52.703125 0.277344 -52.632812 0.207031 -52.5625 C 0 -52.355469 -0.136719 -52.21875 -0.207031 -52.007812 C -0.414062 -51.59375 -0.484375 -51.179688 -0.554688 -50.832031 C -0.625 -50.277344 -0.625 -49.722656 -0.625 -49.238281 C -0.625 -49.03125 -0.625 -48.894531 -0.625 -48.753906 L -0.761719 -44.667969 L -0.96875 -36.496094 L -1.039062 -28.324219 L -1.039062 -26.316406 C -1.109375 -25.554688 -0.96875 -24.792969 -0.625 -24.03125 C -0.277344 -23.339844 0.277344 -22.785156 0.96875 -22.367188 C 1.660156 -22.023438 2.425781 -21.882812 3.253906 -21.953125 C 4.085938 -22.023438 4.777344 -22.367188 5.332031 -22.992188 C 5.609375 -23.199219 5.886719 -23.546875 6.09375 -23.824219 C 6.234375 -24.03125 6.300781 -24.238281 6.441406 -24.445312 C 6.511719 -24.515625 6.578125 -24.652344 6.578125 -24.722656 L 8.65625 -28.253906 C 9.625 -29.917969 10.664062 -31.578125 11.703125 -33.242188 C 12.050781 -33.933594 12.464844 -34.558594 12.882812 -35.25 L 15.027344 -38.710938 C 15.375 -39.335938 15.71875 -39.820312 16.136719 -40.304688 C 16.550781 -40.722656 17.035156 -40.859375 17.519531 -40.652344 C 17.730469 -40.652344 17.867188 -40.445312 17.9375 -40.234375 C 18.003906 -39.960938 18.074219 -39.683594 18.144531 -39.335938 L 18.351562 -38.296875 L 18.628906 -37.328125 C 18.769531 -36.773438 18.90625 -36.21875 18.976562 -35.664062 C 19.183594 -34.902344 19.320312 -34.140625 19.53125 -33.3125 C 19.875 -31.996094 20.359375 -30.679688 21.054688 -29.433594 C 21.398438 -28.808594 21.882812 -28.253906 22.4375 -27.769531 C 23.0625 -27.285156 23.753906 -27.007812 24.515625 -26.871094 C 25.277344 -26.800781 26.039062 -26.941406 26.730469 -27.285156 C 27.425781 -27.632812 27.976562 -28.046875 28.464844 -28.53125 C 29.015625 -29.085938 29.433594 -29.570312 29.847656 -30.195312 C 30.265625 -30.75 30.609375 -31.300781 31.027344 -31.855469 C 31.371094 -32.410156 31.71875 -32.964844 32.0625 -33.519531 C 33.101562 -35.320312 34.28125 -36.980469 35.597656 -38.574219 C 36.425781 -39.613281 37.398438 -40.511719 38.503906 -41.273438 C 39.613281 -42.105469 40.789062 -42.453125 42.035156 -42.3125 C 43.214844 -41.898438 44.253906 -41.136719 45.015625 -39.960938 C 45.777344 -38.851562 46.398438 -37.742188 46.953125 -36.425781 C 47.507812 -35.179688 48.339844 -34.003906 49.378906 -33.035156 C 50.417969 -31.996094 51.59375 -31.300781 53.046875 -30.957031 C 54.433594 -30.609375 55.816406 -30.539062 57.203125 -30.816406 C 58.589844 -31.027344 59.902344 -31.511719 61.152344 -32.0625 C 63.644531 -33.3125 65.859375 -34.902344 67.867188 -36.773438 L 67.9375 -36.84375 C 67.9375 -36.910156 67.9375 -36.910156 67.9375 -36.910156 C 67.9375 -36.980469 68.007812 -37.050781 68.007812 -37.121094 C 68.007812 -37.1875 68.007812 -37.257812 68.007812 -37.328125 C 67.9375 -37.535156 67.867188 -37.671875 67.730469 -37.8125 Z M 67.730469 -37.882812 "/></g></g></g><g fill="#5ce1e6" fill-opacity="1"><g transform="translate(146.551368, 459.262735)"><g><path d="M 7.546875 -25.902344 C 6.925781 -25.761719 6.300781 -25.691406 5.679688 -25.761719 C 5.054688 -25.832031 4.5 -25.96875 4.085938 -26.246094 C 3.601562 -26.59375 3.324219 -27.007812 3.117188 -27.5625 C 2.910156 -28.046875 2.769531 -28.601562 2.699219 -29.15625 C 2.632812 -29.570312 2.632812 -29.988281 2.5625 -30.402344 C 2.5625 -30.609375 2.5625 -30.75 2.492188 -30.886719 C 2.425781 -31.441406 2.425781 -31.996094 2.355469 -32.617188 C 2.355469 -33.171875 2.355469 -33.726562 2.425781 -34.28125 L 2.5625 -36.082031 L 2.839844 -39.542969 C 2.976562 -40.722656 3.046875 -41.898438 3.117188 -43.074219 C 3.117188 -43.144531 3.117188 -43.214844 3.117188 -43.285156 C 3.1875 -44.390625 3.117188 -45.5 2.769531 -46.675781 C 2.632812 -47.300781 2.214844 -47.855469 1.59375 -48.269531 C 0.898438 -48.683594 0.136719 -48.824219 -0.625 -48.753906 C -2.148438 -48.546875 -3.460938 -48.0625 -4.640625 -47.4375 L -4.710938 -47.371094 L -4.777344 -47.300781 C -5.402344 -46.746094 -5.746094 -46.121094 -5.816406 -45.292969 C -5.816406 -44.945312 -5.746094 -44.597656 -5.609375 -44.253906 C -5.609375 -44.183594 -5.609375 -44.183594 -5.539062 -44.183594 C -5.539062 -44.113281 -5.472656 -44.046875 -5.472656 -43.976562 L -5.402344 -43.835938 C -5.332031 -43.769531 -5.261719 -43.769531 -5.261719 -43.699219 C -4.984375 -43.492188 -4.710938 -43.421875 -4.433594 -43.421875 C -4.15625 -43.351562 -3.878906 -43.421875 -3.671875 -43.492188 L -3.1875 -43.699219 C -2.839844 -43.835938 -2.5625 -43.90625 -2.355469 -43.90625 C -2.285156 -43.90625 -2.148438 -43.90625 -2.148438 -43.90625 C -2.078125 -43.835938 -2.007812 -43.769531 -1.9375 -43.699219 C -1.871094 -43.492188 -1.800781 -43.285156 -1.730469 -43.007812 C -1.660156 -42.035156 -1.660156 -41.136719 -1.730469 -40.097656 C -1.800781 -39.890625 -1.800781 -39.613281 -1.800781 -39.335938 L -2.007812 -35.664062 C -2.148438 -34.417969 -2.148438 -33.171875 -2.214844 -31.925781 C -2.214844 -30.679688 -2.078125 -29.433594 -1.800781 -28.1875 C -1.523438 -26.941406 -0.96875 -25.761719 -0.277344 -24.652344 C 0.484375 -23.476562 1.523438 -22.644531 2.976562 -22.160156 C 4.433594 -21.746094 5.957031 -21.605469 7.410156 -21.882812 C 8.171875 -22.023438 8.863281 -22.160156 9.558594 -22.367188 C 10.320312 -22.644531 10.941406 -22.921875 11.632812 -23.269531 C 16.066406 -25.207031 20.222656 -28.324219 23.960938 -32.757812 C 27.703125 -37.121094 29.988281 -40.234375 30.957031 -42.105469 C 30.957031 -42.105469 30.957031 -42.105469 30.957031 -42.175781 C 30.957031 -42.246094 30.957031 -42.382812 30.957031 -42.453125 C 30.957031 -42.589844 30.886719 -42.660156 30.886719 -42.796875 C 30.816406 -42.867188 30.539062 -43.007812 29.988281 -43.144531 C 28.324219 -40.582031 25.140625 -37.1875 20.5 -32.964844 C 15.789062 -28.671875 11.496094 -26.316406 7.546875 -25.902344 Z M 2.769531 -59.074219 C 2.5625 -59.210938 2.355469 -59.351562 2.148438 -59.417969 C 1.9375 -59.488281 1.800781 -59.558594 1.59375 -59.628906 C 1.523438 -59.628906 1.523438 -59.628906 1.453125 -59.628906 C 0.484375 -59.902344 -0.414062 -60.042969 -1.386719 -59.972656 C -2.355469 -59.972656 -3.253906 -59.765625 -4.085938 -59.351562 C -4.570312 -59.140625 -4.917969 -58.867188 -5.261719 -58.519531 C -5.609375 -58.101562 -5.746094 -57.6875 -5.746094 -57.132812 C -5.609375 -56.578125 -5.332031 -56.164062 -4.847656 -55.816406 C -4.433594 -55.542969 -3.949219 -55.332031 -3.53125 -55.195312 C -2.5625 -54.988281 -1.59375 -54.917969 -0.625 -54.988281 C 0.277344 -55.125 1.175781 -55.332031 2.007812 -55.816406 C 2.355469 -56.027344 2.699219 -56.304688 3.046875 -56.648438 C 3.324219 -56.996094 3.460938 -57.410156 3.394531 -57.828125 L 3.324219 -57.828125 C 3.324219 -58.3125 3.117188 -58.726562 2.769531 -59.074219 Z M 2.769531 -59.074219 "/></g></g></g><g fill="#5ce1e6" fill-opacity="1"><g transform="translate(175.843186, 459.262735)"><g><path d="M 40.304688 -43.558594 C 39.890625 -43.492188 39.613281 -43.214844 39.40625 -42.867188 L 39.40625 -42.730469 L 39.335938 -42.660156 L 39.335938 -42.453125 L 39.199219 -42.175781 C 38.921875 -41.34375 38.574219 -40.445312 38.226562 -39.613281 C 36.910156 -36.289062 35.179688 -33.101562 33.035156 -30.195312 C 30.957031 -27.214844 28.464844 -24.722656 25.484375 -22.644531 C 23.960938 -21.675781 22.367188 -20.914062 20.707031 -20.429688 C 18.90625 -19.875 17.242188 -19.945312 15.71875 -20.636719 C 15.027344 -21.054688 14.542969 -21.675781 14.265625 -22.507812 C 13.988281 -23.269531 13.851562 -24.167969 13.78125 -25.070312 C 13.710938 -26.800781 13.851562 -28.601562 14.128906 -30.402344 C 14.335938 -31.789062 14.542969 -33.101562 14.820312 -34.488281 C 14.890625 -34.902344 14.957031 -35.320312 15.027344 -35.734375 L 15.582031 -38.4375 C 15.71875 -39.335938 15.929688 -40.234375 16.066406 -41.136719 L 16.898438 -46.539062 C 17.035156 -47.300781 17.105469 -47.992188 17.242188 -48.753906 C 17.242188 -48.894531 17.242188 -49.101562 17.242188 -49.238281 C 17.3125 -49.585938 17.382812 -49.863281 17.382812 -50.207031 C 17.453125 -50.761719 17.519531 -51.386719 17.589844 -51.941406 C 17.589844 -52.078125 17.660156 -52.285156 17.660156 -52.425781 C 17.9375 -54.085938 17.867188 -55.816406 17.453125 -57.480469 C 17.175781 -58.449219 16.621094 -59.28125 15.789062 -59.835938 C 14.890625 -60.390625 13.988281 -60.664062 12.949219 -60.527344 C 12.464844 -60.457031 11.980469 -60.320312 11.566406 -60.113281 C 11.148438 -60.042969 10.734375 -59.902344 10.386719 -59.835938 C 10.527344 -60.804688 10.527344 -61.84375 10.457031 -62.8125 C 10.457031 -63.367188 10.320312 -63.921875 10.25 -64.476562 C 10.179688 -64.75 10.109375 -65.027344 9.972656 -65.304688 C 9.902344 -65.511719 9.832031 -65.722656 9.765625 -65.859375 C 9.695312 -65.929688 9.695312 -66.066406 9.625 -66.136719 C 9.347656 -66.691406 8.863281 -67.105469 8.242188 -67.3125 C 7.964844 -67.453125 7.617188 -67.523438 7.339844 -67.453125 C 7.132812 -67.453125 6.996094 -67.453125 6.855469 -67.382812 C 6.71875 -67.3125 6.578125 -67.3125 6.371094 -67.246094 C 5.886719 -66.898438 5.402344 -66.484375 5.054688 -66 C 4.917969 -65.789062 4.777344 -65.582031 4.640625 -65.375 C 4.640625 -65.375 4.640625 -65.304688 4.640625 -65.304688 C 4.570312 -65.238281 4.570312 -65.167969 4.5 -65.027344 C 4.363281 -64.890625 4.292969 -64.75 4.222656 -64.542969 C 3.671875 -63.574219 3.324219 -62.464844 3.1875 -61.359375 C 3.1875 -60.734375 3.253906 -60.179688 3.394531 -59.628906 C 3.53125 -59.003906 3.808594 -58.519531 4.15625 -58.035156 C 4.777344 -57.203125 5.539062 -56.578125 6.511719 -56.234375 C 6.511719 -56.164062 6.441406 -56.09375 6.441406 -56.09375 C 6.441406 -56.027344 6.441406 -55.957031 6.371094 -55.886719 C 6.09375 -54.917969 5.746094 -54.015625 5.402344 -53.046875 C 3.808594 -49.445312 1.730469 -46.054688 -0.832031 -43.007812 L -0.761719 -43.007812 C -1.039062 -42.730469 -1.109375 -42.382812 -1.039062 -42.035156 C -0.898438 -41.757812 -0.691406 -41.484375 -0.347656 -41.34375 C 0 -41.273438 0.347656 -41.34375 0.625 -41.550781 C 0.691406 -41.621094 0.761719 -41.691406 0.832031 -41.757812 C 0.832031 -41.828125 0.898438 -41.828125 0.898438 -41.828125 L 1.175781 -42.175781 C 1.9375 -43.007812 2.632812 -43.835938 3.253906 -44.667969 C 4.640625 -46.398438 5.816406 -48.269531 6.925781 -50.207031 C 7.894531 -51.941406 8.65625 -53.742188 9.347656 -55.679688 C 9.695312 -55.679688 9.972656 -55.679688 10.320312 -55.679688 C 10.871094 -55.679688 11.496094 -55.75 12.050781 -55.886719 C 12.1875 -55.957031 12.394531 -55.957031 12.605469 -56.027344 C 12.671875 -56.027344 12.742188 -56.027344 12.8125 -56.09375 L 13.15625 -56.164062 C 13.15625 -56.09375 13.226562 -55.957031 13.226562 -55.886719 C 13.226562 -55.679688 13.226562 -55.472656 13.226562 -55.265625 C 13.226562 -54.847656 13.15625 -54.363281 13.089844 -53.949219 C 12.949219 -53.046875 12.8125 -52.148438 12.605469 -51.316406 C 12.1875 -49.515625 11.773438 -47.785156 11.359375 -45.984375 C 11.21875 -45.359375 11.082031 -44.738281 10.941406 -44.113281 C 10.664062 -42.9375 10.386719 -41.828125 10.109375 -40.652344 C 9.765625 -38.851562 9.488281 -37.050781 9.28125 -35.25 C 8.796875 -31.578125 8.796875 -27.910156 9.28125 -24.238281 C 9.417969 -23.269531 9.695312 -22.367188 9.972656 -21.46875 C 10.320312 -20.566406 10.804688 -19.738281 11.359375 -18.976562 C 11.980469 -18.214844 12.742188 -17.589844 13.644531 -17.105469 C 14.472656 -16.621094 15.445312 -16.34375 16.414062 -16.207031 C 18.28125 -15.996094 20.152344 -16.207031 22.023438 -16.828125 C 23.753906 -17.453125 25.414062 -18.28125 27.007812 -19.320312 C 30.125 -21.46875 32.6875 -24.03125 34.835938 -27.148438 C 36.910156 -30.195312 38.644531 -33.378906 40.027344 -36.84375 C 40.375 -37.671875 40.652344 -38.574219 40.929688 -39.472656 C 41.066406 -39.890625 41.273438 -40.304688 41.34375 -40.722656 L 41.550781 -41.414062 L 41.691406 -41.757812 L 41.757812 -41.898438 L 41.757812 -41.96875 C 41.757812 -41.96875 41.757812 -42.035156 41.757812 -42.035156 C 41.757812 -42.035156 41.757812 -42.105469 41.757812 -42.105469 C 41.828125 -42.523438 41.691406 -42.9375 41.414062 -43.214844 C 41.136719 -43.492188 40.722656 -43.628906 40.304688 -43.558594 Z M 13.367188 -56.164062 C 13.367188 -56.164062 13.367188 -56.164062 13.433594 -56.164062 C 13.433594 -56.164062 13.433594 -56.164062 13.367188 -56.164062 C 13.367188 -56.164062 13.367188 -56.164062 13.433594 -56.164062 Z M 7.0625 -61.914062 C 7.0625 -62.121094 7.132812 -62.328125 7.203125 -62.464844 C 7.273438 -62.1875 7.273438 -61.914062 7.273438 -61.636719 C 7.273438 -61.21875 7.273438 -60.734375 7.273438 -60.320312 C 7.132812 -60.390625 7.0625 -60.527344 6.996094 -60.734375 C 6.925781 -61.082031 6.925781 -61.496094 7.0625 -61.914062 Z M 7.0625 -61.914062 "/></g></g></g><g fill="#5ce1e6" fill-opacity="1"><g transform="translate(215.937661, 459.262735)"><g><path d="M 2.285156 -28.808594 C 5.472656 -30.125 8.308594 -31.855469 10.941406 -34.003906 C 11.425781 -34.351562 11.980469 -34.765625 12.464844 -35.113281 C 12.882812 -35.320312 13.296875 -35.457031 13.710938 -35.457031 C 14.058594 -35.457031 14.472656 -35.320312 14.75 -34.972656 C 14.890625 -34.902344 14.957031 -34.765625 15.097656 -34.625 C 15.097656 -34.558594 15.167969 -34.558594 15.234375 -34.488281 L 15.71875 -33.863281 C 15.929688 -33.585938 16.207031 -33.3125 16.480469 -33.035156 C 16.550781 -32.894531 16.621094 -32.824219 16.691406 -32.757812 C 17.453125 -31.996094 18.214844 -31.371094 19.113281 -30.816406 C 20.015625 -30.265625 20.984375 -29.917969 22.023438 -29.847656 C 24.167969 -29.710938 26.175781 -30.054688 28.046875 -30.75 C 29.988281 -31.300781 31.855469 -32.0625 33.65625 -32.964844 C 35.457031 -33.796875 37.1875 -34.765625 38.921875 -35.804688 C 39.75 -36.359375 40.582031 -36.910156 41.414062 -37.535156 C 42.246094 -38.089844 43.007812 -38.710938 43.699219 -39.472656 L 43.769531 -39.40625 L 44.253906 -39.960938 C 44.460938 -40.167969 44.667969 -40.375 44.808594 -40.582031 C 44.808594 -40.582031 44.875 -40.652344 44.875 -40.652344 C 44.875 -40.652344 44.945312 -40.722656 44.945312 -40.789062 C 45.015625 -40.789062 45.015625 -40.859375 45.082031 -40.929688 C 45.152344 -41.066406 45.152344 -41.273438 45.152344 -41.414062 C 45.152344 -41.621094 45.082031 -41.757812 44.945312 -41.898438 C 44.808594 -42.035156 44.738281 -42.105469 44.597656 -42.175781 L 44.53125 -42.175781 C 44.320312 -42.246094 44.113281 -42.3125 43.90625 -42.246094 C 43.769531 -42.246094 43.628906 -42.246094 43.558594 -42.175781 C 43.492188 -42.105469 43.421875 -42.105469 43.351562 -42.035156 C 43.351562 -42.035156 43.351562 -42.035156 43.285156 -42.035156 L 43.351562 -42.035156 C 43.144531 -41.898438 42.9375 -41.828125 42.867188 -41.691406 C 42.796875 -41.621094 42.730469 -41.621094 42.660156 -41.550781 L 42.105469 -41.066406 L 40.929688 -40.167969 C 40.167969 -39.542969 39.335938 -38.921875 38.574219 -38.367188 C 36.980469 -37.1875 35.320312 -36.082031 33.585938 -35.179688 C 31.855469 -34.140625 29.988281 -33.519531 28.046875 -33.242188 C 26.039062 -33.035156 24.167969 -33.3125 22.507812 -34.28125 C 21.675781 -34.765625 21.054688 -35.457031 20.566406 -36.359375 C 20.152344 -37.121094 19.804688 -38.019531 19.53125 -38.921875 C 19.53125 -38.921875 19.53125 -38.988281 19.53125 -39.058594 C 19.253906 -40.027344 18.769531 -40.929688 18.144531 -41.828125 C 17.796875 -42.3125 17.382812 -42.589844 16.757812 -42.730469 C 16.207031 -42.867188 15.652344 -42.796875 15.097656 -42.660156 C 14.128906 -42.246094 13.226562 -41.757812 12.394531 -41.207031 C 11.566406 -40.652344 10.734375 -40.027344 9.972656 -39.335938 C 9.902344 -39.265625 9.832031 -39.199219 9.695312 -39.128906 C 9.070312 -38.574219 8.378906 -38.019531 7.6875 -37.464844 C 7.480469 -37.328125 7.273438 -37.1875 7.0625 -37.050781 C 6.855469 -36.910156 6.648438 -36.773438 6.441406 -36.636719 C 6.09375 -36.289062 5.679688 -36.011719 5.261719 -35.664062 C 3.738281 -34.351562 2.078125 -33.378906 0.277344 -32.824219 C 0.207031 -32.824219 0.136719 -32.824219 0.0703125 -32.757812 C -0.0703125 -32.757812 -0.207031 -32.6875 -0.414062 -32.6875 L -0.761719 -32.6875 C -0.832031 -32.6875 -0.832031 -32.6875 -0.898438 -32.617188 C -0.898438 -32.617188 -0.96875 -32.6875 -0.96875 -32.6875 C -1.109375 -32.6875 -1.246094 -32.757812 -1.316406 -32.824219 C -1.386719 -32.964844 -1.453125 -33.101562 -1.386719 -33.242188 C -1.386719 -33.3125 -1.386719 -33.378906 -1.316406 -33.449219 L -1.109375 -33.726562 L -0.691406 -34.351562 C -0.625 -34.417969 -0.554688 -34.488281 -0.484375 -34.558594 C -0.277344 -34.902344 -0.0703125 -35.179688 0.207031 -35.527344 C 1.453125 -37.050781 2.839844 -38.4375 4.363281 -39.613281 C 5.957031 -40.789062 7.617188 -41.757812 9.417969 -42.523438 C 11.21875 -43.285156 13.089844 -43.769531 15.027344 -43.976562 C 17.035156 -44.253906 18.976562 -44.253906 20.914062 -44.046875 C 21.191406 -43.976562 21.539062 -43.90625 21.816406 -43.90625 C 22.023438 -43.835938 22.160156 -43.835938 22.367188 -43.769531 C 22.4375 -43.769531 22.507812 -43.769531 22.578125 -43.769531 C 22.785156 -43.699219 22.921875 -43.699219 23.0625 -43.699219 L 23.753906 -43.492188 L 24.515625 -43.351562 C 24.585938 -43.351562 24.652344 -43.285156 24.722656 -43.285156 C 24.863281 -43.214844 25.070312 -43.214844 25.347656 -43.214844 C 25.761719 -43.214844 26.109375 -43.351562 26.386719 -43.628906 C 26.664062 -43.90625 26.800781 -44.253906 26.871094 -44.667969 C 26.871094 -44.875 26.800781 -45.015625 26.730469 -45.222656 C 26.664062 -45.429688 26.523438 -45.570312 26.386719 -45.707031 C 26.246094 -45.914062 26.039062 -46.054688 25.832031 -46.261719 C 25.347656 -46.539062 24.929688 -46.816406 24.445312 -47.09375 C 23.476562 -47.507812 22.4375 -47.785156 21.398438 -47.921875 C 17.3125 -48.476562 13.296875 -48.199219 9.347656 -47.160156 C 5.402344 -46.054688 1.800781 -44.183594 -1.316406 -41.550781 C -2.910156 -40.304688 -4.363281 -38.921875 -5.746094 -37.398438 C -6.441406 -36.703125 -7.0625 -35.875 -7.617188 -34.972656 C -8.171875 -34.003906 -8.378906 -32.964844 -8.308594 -31.789062 C -8.242188 -31.234375 -8.035156 -30.679688 -7.757812 -30.195312 C -7.480469 -29.710938 -7.203125 -29.292969 -6.785156 -28.949219 C -5.886719 -28.1875 -4.847656 -27.769531 -3.738281 -27.769531 C -2.699219 -27.769531 -1.660156 -27.839844 -0.691406 -28.046875 C 0.347656 -28.1875 1.316406 -28.464844 2.285156 -28.808594 Z M 2.285156 -28.808594 "/></g></g></g><g fill="#5ce1e6" fill-opacity="1"><g transform="translate(259.840765, 459.262735)"><g><path d="M -2.839844 -41.621094 L -4.847656 -39.613281 C -5.125 -39.335938 -5.332031 -39.128906 -5.539062 -38.921875 C -5.609375 -38.78125 -5.746094 -38.644531 -5.886719 -38.574219 C -5.886719 -38.503906 -5.886719 -38.503906 -5.886719 -38.503906 C -6.234375 -38.160156 -6.511719 -37.8125 -6.785156 -37.398438 C -7.410156 -36.636719 -7.894531 -35.734375 -8.171875 -34.765625 C -8.449219 -33.726562 -8.519531 -32.757812 -8.308594 -31.71875 C -8.101562 -30.75 -7.6875 -29.777344 -7.0625 -28.949219 C -6.511719 -28.117188 -5.679688 -27.492188 -4.777344 -27.007812 C -2.839844 -26.246094 -0.96875 -25.96875 0.96875 -26.109375 C 4.847656 -26.316406 8.585938 -27.078125 12.1875 -28.394531 C 13.433594 -28.738281 14.75 -29.15625 15.996094 -29.5 C 18.351562 -30.125 20.707031 -30.886719 23.0625 -31.71875 C 23.683594 -31.996094 24.238281 -32.203125 24.863281 -32.480469 C 26.039062 -32.894531 27.214844 -33.378906 28.324219 -33.863281 C 30.054688 -34.558594 31.789062 -35.320312 33.519531 -36.148438 C 35.25 -36.910156 36.910156 -37.8125 38.574219 -38.710938 C 39.472656 -39.199219 40.234375 -39.683594 40.996094 -40.304688 C 41.414062 -40.582031 41.757812 -40.859375 42.105469 -41.273438 C 42.246094 -41.484375 42.382812 -41.691406 42.453125 -42.035156 C 42.453125 -42.175781 42.382812 -42.3125 42.3125 -42.453125 C 42.246094 -42.523438 42.246094 -42.589844 42.175781 -42.589844 L 42.105469 -42.660156 C 42.105469 -42.730469 42.035156 -42.730469 42.035156 -42.730469 C 41.96875 -42.730469 41.96875 -42.730469 41.898438 -42.796875 C 41.066406 -42.453125 40.375 -42.035156 39.613281 -41.691406 C 38.644531 -41.207031 37.671875 -40.789062 36.703125 -40.304688 C 35.042969 -39.542969 33.3125 -38.78125 31.511719 -38.019531 C 28.046875 -36.636719 24.445312 -35.386719 20.84375 -34.28125 C 19.042969 -33.796875 17.242188 -33.242188 15.445312 -32.757812 C 15.097656 -32.6875 14.820312 -32.617188 14.472656 -32.480469 C 13.019531 -32.0625 11.496094 -31.71875 9.902344 -31.441406 C 8.101562 -31.09375 6.234375 -30.886719 4.363281 -30.816406 C 3.394531 -30.816406 2.492188 -30.816406 1.523438 -30.816406 C 1.453125 -30.816406 1.453125 -30.816406 1.386719 -30.816406 C 0.484375 -30.886719 -0.347656 -30.957031 -1.175781 -31.09375 C -1.660156 -31.234375 -2.007812 -31.371094 -2.355469 -31.578125 C -2.699219 -31.855469 -2.976562 -32.132812 -3.117188 -32.480469 C -3.253906 -32.824219 -3.253906 -33.242188 -3.117188 -33.585938 C -2.976562 -34.003906 -2.769531 -34.417969 -2.5625 -34.765625 C -1.453125 -36.289062 -0.136719 -37.605469 1.316406 -38.78125 C 2.699219 -39.960938 4.292969 -40.996094 5.957031 -41.828125 C 7.617188 -42.660156 9.347656 -43.351562 11.148438 -43.90625 C 12.050781 -44.183594 12.949219 -44.390625 13.851562 -44.597656 C 14.75 -44.875 15.582031 -44.875 16.273438 -44.597656 C 16.96875 -44.183594 17.3125 -43.558594 17.453125 -42.660156 L 17.519531 -42.246094 C 17.519531 -42.105469 17.589844 -41.96875 17.589844 -41.828125 C 17.730469 -41.550781 17.9375 -41.273438 18.144531 -41.066406 C 18.351562 -40.859375 18.699219 -40.722656 19.042969 -40.652344 C 19.320312 -40.582031 19.667969 -40.582031 19.945312 -40.652344 C 20.5 -40.859375 20.984375 -41.207031 21.328125 -41.550781 C 21.746094 -41.898438 22.089844 -42.3125 22.300781 -42.796875 C 22.785156 -43.769531 22.921875 -44.808594 22.785156 -45.914062 C 22.507812 -47.023438 21.953125 -47.921875 21.054688 -48.546875 C 20.152344 -49.167969 19.183594 -49.515625 18.144531 -49.65625 C 17.382812 -49.722656 16.621094 -49.722656 15.859375 -49.722656 C 15.652344 -49.722656 15.445312 -49.722656 15.234375 -49.722656 L 13.78125 -49.585938 C 13.503906 -49.585938 13.15625 -49.515625 12.882812 -49.445312 C 12.671875 -49.445312 12.535156 -49.445312 12.328125 -49.378906 C 10.457031 -49.101562 8.585938 -48.617188 6.785156 -47.855469 C 3.1875 -46.332031 0 -44.253906 -2.839844 -41.621094 Z M -2.839844 -41.621094 "/></g></g></g><g fill="#5ce1e6" fill-opacity="1"><g transform="translate(300.904708, 459.262735)"><g><path d="M 67.105469 -41.757812 C 67.105469 -41.898438 67.039062 -41.96875 66.96875 -42.035156 C 66.761719 -42.246094 66.484375 -42.3125 66.136719 -42.382812 C 65.929688 -42.382812 65.511719 -42.3125 64.890625 -42.175781 C 64.265625 -41.96875 63.503906 -41.484375 62.535156 -40.722656 L 61.152344 -39.472656 L 59.695312 -38.296875 C 57.757812 -36.84375 55.75 -35.457031 53.601562 -34.074219 C 51.59375 -32.824219 49.378906 -31.648438 47.09375 -30.609375 C 44.875 -29.570312 42.589844 -28.738281 40.167969 -28.117188 C 35.597656 -26.941406 30.75 -27.007812 25.761719 -28.394531 C 21.398438 -29.640625 17.175781 -31.789062 13.089844 -34.902344 L 12.8125 -35.113281 C 10.042969 -37.464844 7.410156 -40.027344 4.984375 -42.796875 C 15.167969 -48.894531 23.824219 -56.371094 30.816406 -65.238281 C 38.089844 -74.308594 43.835938 -84.488281 48.132812 -95.777344 C 52.285156 -106.648438 55.054688 -118.078125 56.304688 -129.917969 C 56.925781 -136.152344 57.203125 -142.039062 56.925781 -147.507812 C 56.71875 -153.878906 55.957031 -159.351562 54.640625 -164.0625 L 54.847656 -164.128906 L 54.570312 -165.03125 C 53.117188 -169.738281 51.109375 -173.617188 48.476562 -176.664062 C 46.882812 -178.464844 45.152344 -179.851562 43.285156 -180.890625 C 42.246094 -181.445312 41.207031 -181.929688 40.167969 -182.273438 C 39.199219 -182.550781 38.089844 -182.828125 36.910156 -182.96875 C 35.734375 -183.105469 34.625 -183.175781 33.519531 -183.175781 C 32.550781 -183.105469 31.441406 -183.035156 30.195312 -182.828125 C 28.117188 -182.480469 25.96875 -181.859375 23.824219 -181.027344 C 19.804688 -179.367188 16.066406 -177.148438 12.535156 -174.378906 C 9.347656 -171.75 6.300781 -168.699219 3.394531 -165.03125 C 0.761719 -161.636719 -1.730469 -158.105469 -3.949219 -154.367188 C -8.242188 -147.234375 -11.632812 -139.269531 -14.128906 -130.472656 C -15.375 -126.386719 -16.34375 -122.164062 -17.105469 -117.867188 C -17.9375 -113.089844 -18.558594 -108.867188 -18.835938 -104.988281 C -19.667969 -95.847656 -19.390625 -87.191406 -18.003906 -79.15625 L -17.867188 -78.324219 L -17.382812 -75.902344 C -17.3125 -75.625 -17.242188 -75.347656 -17.175781 -75 C -17.175781 -74.933594 -17.105469 -74.863281 -17.105469 -74.792969 C -16.96875 -74.101562 -16.828125 -73.476562 -16.621094 -72.714844 L -15.582031 -69.046875 C -15.375 -68.214844 -15.027344 -67.382812 -14.75 -66.550781 C -14.542969 -66.066406 -14.40625 -65.652344 -14.265625 -65.167969 C -14.195312 -65.167969 -14.195312 -65.097656 -14.195312 -65.097656 C -13.644531 -63.503906 -13.019531 -61.980469 -12.328125 -60.527344 L -10.941406 -57.550781 L -9.347656 -54.710938 C -5.261719 -47.4375 0.0703125 -40.789062 6.648438 -34.765625 L 9.902344 -32.0625 C 14.683594 -28.671875 19.390625 -26.386719 24.101562 -25.207031 C 26.941406 -24.515625 29.847656 -24.167969 32.6875 -24.167969 C 35.179688 -24.167969 37.671875 -24.378906 40.097656 -24.929688 C 44.875 -25.96875 49.792969 -28.046875 54.78125 -31.09375 C 57.203125 -32.617188 59.417969 -34.140625 61.289062 -35.734375 C 62.328125 -36.566406 63.160156 -37.257812 63.851562 -37.882812 C 64.542969 -38.503906 65.097656 -39.058594 65.511719 -39.472656 C 65.929688 -39.890625 66.273438 -40.234375 66.484375 -40.511719 C 66.761719 -40.789062 66.898438 -41.066406 66.96875 -41.207031 C 67.105469 -41.414062 67.105469 -41.484375 67.105469 -41.621094 C 67.105469 -41.691406 67.105469 -41.757812 67.105469 -41.757812 Z M 50.140625 -163.921875 C 51.457031 -159.28125 52.285156 -153.742188 52.5625 -147.164062 C 52.839844 -141.898438 52.632812 -136.222656 52.007812 -130.125 C 50.832031 -118.699219 48.199219 -107.6875 44.253906 -97.023438 C 40.097656 -86.082031 34.558594 -76.246094 27.632812 -67.523438 C 20.777344 -58.867188 12.464844 -51.59375 2.699219 -45.707031 C 1.175781 -47.578125 -0.0703125 -49.308594 -1.109375 -50.832031 C -2.285156 -52.5625 -3.53125 -54.640625 -4.847656 -56.996094 C -6.09375 -59.28125 -7.0625 -61.496094 -7.894531 -63.503906 C -8.242188 -64.265625 -8.519531 -65.097656 -8.796875 -65.859375 C -8.933594 -66.207031 -9.003906 -66.550781 -9.140625 -66.898438 C -9.28125 -67.246094 -9.347656 -67.589844 -9.488281 -67.9375 C -9.765625 -68.699219 -9.972656 -69.53125 -10.25 -70.292969 C -11.496094 -74.722656 -12.394531 -79.433594 -12.8125 -84.417969 C -12.949219 -86.359375 -13.089844 -88.230469 -13.226562 -90.097656 C -13.226562 -90.582031 -13.226562 -91.136719 -13.296875 -91.621094 L -13.296875 -92.9375 C -13.367188 -94.878906 -13.367188 -96.886719 -13.296875 -98.894531 C -13.15625 -104.019531 -12.742188 -108.867188 -12.050781 -113.296875 C -11.84375 -114.335938 -11.703125 -115.445312 -11.425781 -116.484375 L -11.21875 -117.660156 C -11.082031 -118.5625 -10.871094 -119.460938 -10.664062 -120.363281 C -10.527344 -120.707031 -10.457031 -121.125 -10.386719 -121.539062 C -10.320312 -121.609375 -10.320312 -121.679688 -10.320312 -121.679688 C -10.179688 -122.441406 -9.972656 -123.132812 -9.765625 -123.824219 L -8.796875 -127.355469 C -7.339844 -132.273438 -5.679688 -136.84375 -3.949219 -140.929688 C -3.738281 -141.277344 -3.601562 -141.691406 -3.394531 -142.109375 C -3.394531 -142.175781 -3.394531 -142.175781 -3.324219 -142.246094 C -2.5625 -143.976562 -1.730469 -145.777344 -0.832031 -147.507812 C -0.0703125 -149.101562 0.832031 -150.765625 1.660156 -152.355469 C 1.660156 -152.355469 1.730469 -152.355469 1.730469 -152.355469 C 1.9375 -152.773438 2.148438 -153.1875 2.355469 -153.605469 L 2.425781 -153.535156 L 2.5625 -153.8125 C 5.332031 -158.519531 8.726562 -162.882812 12.742188 -166.898438 C 14.957031 -169.117188 17.035156 -170.984375 18.976562 -172.371094 C 21.261719 -174.101562 23.617188 -175.488281 26.039062 -176.527344 C 28.878906 -177.773438 31.511719 -178.535156 33.863281 -178.8125 C 34.074219 -178.8125 34.28125 -178.8125 34.488281 -178.8125 C 34.625 -178.8125 34.765625 -178.8125 34.835938 -178.882812 C 34.972656 -178.882812 35.113281 -178.882812 35.25 -178.882812 C 35.457031 -178.882812 35.664062 -178.882812 35.875 -178.882812 C 36.011719 -178.882812 36.21875 -178.882812 36.359375 -178.882812 C 36.84375 -178.8125 37.398438 -178.8125 37.882812 -178.671875 C 39.058594 -178.535156 40.304688 -178.121094 41.550781 -177.425781 L 42.453125 -176.941406 C 42.589844 -176.804688 42.796875 -176.734375 42.9375 -176.597656 C 43.074219 -176.527344 43.144531 -176.386719 43.285156 -176.320312 C 43.628906 -176.109375 43.976562 -175.765625 44.253906 -175.417969 C 44.253906 -175.417969 44.253906 -175.417969 44.320312 -175.417969 C 44.460938 -175.28125 44.597656 -175.140625 44.738281 -175.003906 C 44.875 -174.863281 45.015625 -174.726562 45.152344 -174.519531 C 45.222656 -174.449219 45.292969 -174.308594 45.359375 -174.242188 C 45.429688 -174.171875 45.5 -174.035156 45.570312 -173.964844 C 45.777344 -173.824219 45.84375 -173.6875 45.984375 -173.480469 C 46.121094 -173.273438 46.261719 -173.0625 46.398438 -172.925781 C 46.609375 -172.511719 46.882812 -172.164062 47.09375 -171.75 L 47.230469 -171.472656 C 47.507812 -170.984375 47.785156 -170.5 47.992188 -169.949219 L 48.132812 -169.601562 C 48.40625 -169.117188 48.617188 -168.632812 48.824219 -168.078125 C 49.167969 -167.039062 49.585938 -165.929688 49.929688 -164.613281 Z M 50.140625 -163.921875 "/></g></g></g><g fill="#5ce1e6" fill-opacity="1"><g transform="translate(366.620868, 459.262735)"><g><path d="M 11.566406 -24.863281 C 11.632812 -24.863281 11.773438 -24.863281 11.910156 -24.863281 C 11.980469 -24.863281 11.980469 -24.863281 12.050781 -24.863281 C 14.890625 -24.792969 17.519531 -25.347656 20.082031 -26.453125 C 22.578125 -27.5625 24.863281 -28.949219 27.007812 -30.609375 C 29.15625 -32.273438 31.234375 -34.074219 33.171875 -35.941406 C 34.140625 -36.84375 35.042969 -37.8125 36.011719 -38.78125 C 36.636719 -39.472656 37.328125 -40.167969 37.949219 -40.859375 C 38.160156 -41.066406 38.367188 -41.34375 38.574219 -41.550781 L 38.78125 -41.828125 C 38.78125 -41.898438 38.78125 -41.96875 38.710938 -42.105469 C 38.710938 -42.105469 38.710938 -42.175781 38.710938 -42.246094 C 38.644531 -42.382812 38.503906 -42.453125 38.367188 -42.523438 C 38.160156 -42.660156 37.882812 -42.660156 37.671875 -42.589844 C 37.1875 -42.523438 36.910156 -42.175781 36.703125 -41.691406 C 36.703125 -41.691406 36.636719 -41.621094 36.566406 -41.621094 C 34.902344 -40.167969 33.242188 -38.78125 31.578125 -37.464844 C 29.777344 -36.082031 27.976562 -34.835938 26.109375 -33.585938 C 24.238281 -32.339844 22.300781 -31.300781 20.222656 -30.539062 C 18.144531 -29.777344 15.996094 -29.292969 13.78125 -29.085938 C 12.464844 -29.085938 11.148438 -29.226562 9.902344 -29.5 C 9.210938 -29.640625 8.65625 -29.847656 8.101562 -30.125 C 7.480469 -30.472656 6.996094 -30.816406 6.578125 -31.234375 C 5.679688 -32.203125 5.054688 -33.242188 4.710938 -34.558594 C 4.292969 -35.804688 4.222656 -37.050781 4.433594 -38.296875 C 4.570312 -38.921875 4.777344 -39.472656 5.054688 -40.027344 C 5.402344 -40.582031 5.816406 -41.066406 6.234375 -41.484375 C 7.203125 -42.382812 8.242188 -43.144531 9.417969 -43.769531 C 11.910156 -45.082031 13.988281 -46.816406 15.789062 -48.960938 C 17.519531 -51.179688 18.769531 -53.671875 19.320312 -56.441406 C 19.53125 -57.132812 19.460938 -57.894531 19.320312 -58.65625 C 19.042969 -59.488281 18.628906 -60.113281 17.9375 -60.527344 C 16.550781 -61.359375 15.097656 -61.636719 13.644531 -61.289062 C 12.882812 -61.082031 12.257812 -60.804688 11.566406 -60.457031 C 11.011719 -60.113281 10.386719 -59.695312 9.902344 -59.210938 C 8.796875 -58.378906 7.824219 -57.410156 6.925781 -56.371094 C 5.125 -54.292969 3.671875 -52.007812 2.425781 -49.515625 C 1.246094 -47.09375 0.277344 -44.53125 -0.484375 -41.96875 C -0.898438 -40.582031 -1.109375 -39.265625 -1.175781 -37.882812 C -1.175781 -36.425781 -1.039062 -35.113281 -0.625 -33.726562 C -0.207031 -32.410156 0.347656 -31.164062 1.175781 -29.988281 C 2.078125 -28.878906 3.046875 -27.910156 4.222656 -27.148438 C 5.402344 -26.386719 6.648438 -25.832031 8.035156 -25.484375 C 8.242188 -25.414062 8.449219 -25.347656 8.65625 -25.347656 C 8.796875 -25.277344 8.933594 -25.277344 9.003906 -25.277344 C 9.140625 -25.207031 9.28125 -25.207031 9.347656 -25.207031 C 9.558594 -25.140625 9.832031 -25.070312 10.042969 -25.070312 L 11.011719 -24.929688 Z M 10.25 -48.269531 C 10.109375 -48.132812 9.902344 -48.0625 9.625 -47.992188 C 9.347656 -47.855469 9.140625 -47.785156 8.863281 -47.714844 C 8.585938 -47.644531 8.378906 -47.578125 8.242188 -47.507812 C 8.101562 -47.507812 7.964844 -47.507812 7.964844 -47.507812 C 8.242188 -48.339844 8.585938 -49.167969 9.070312 -49.929688 C 9.488281 -50.695312 9.902344 -51.316406 10.25 -51.730469 C 10.386719 -51.871094 10.457031 -52.007812 10.527344 -52.148438 C 11.082031 -52.910156 11.632812 -53.601562 12.328125 -54.292969 C 12.671875 -54.570312 13.019531 -54.917969 13.367188 -55.195312 C 13.433594 -55.265625 13.503906 -55.332031 13.644531 -55.402344 C 13.710938 -55.472656 13.78125 -55.609375 13.917969 -55.679688 C 13.917969 -55.679688 13.988281 -55.75 14.058594 -55.75 C 14.128906 -55.816406 14.195312 -55.886719 14.265625 -55.957031 C 14.265625 -55.957031 14.335938 -56.027344 14.335938 -56.027344 C 14.472656 -56.027344 14.542969 -56.027344 14.683594 -56.027344 C 14.820312 -56.027344 14.890625 -55.957031 14.957031 -55.816406 C 15.097656 -55.75 15.097656 -55.609375 15.097656 -55.472656 C 15.097656 -55.402344 15.097656 -55.265625 15.097656 -55.195312 C 15.097656 -55.054688 15.027344 -54.917969 15.027344 -54.78125 C 14.957031 -53.878906 14.683594 -52.980469 14.195312 -52.21875 C 13.296875 -50.484375 11.980469 -49.167969 10.320312 -48.269531 Z M 10.25 -48.269531 "/></g></g></g></svg>