<svg xmlns="http://www.w3.org/2000/svg" xmlns:xlink="http://www.w3.org/1999/xlink" width="500" zoomAndPan="magnify" viewBox="0 0 375 374.999991" height="500" preserveAspectRatio="xMidYMid meet" version="1.0"><defs><g/><clipPath id="c6e39d3ed0"><path d="M 8.066406 0 L 293 0 L 293 284 L 8.066406 284 Z M 8.066406 0 " clip-rule="nonzero"/></clipPath><clipPath id="674f0ff59d"><path d="M 135 200 L 264 200 L 264 321.582031 L 135 321.582031 Z M 135 200 " clip-rule="nonzero"/></clipPath></defs><rect x="-37.5" width="450" fill="#ffffff" y="-37.499999" height="449.999989" fill-opacity="1"/><rect x="-37.5" width="450" fill="#ffffff" y="-37.499999" height="449.999989" fill-opacity="1"/><rect x="-37.5" width="450" fill="#000000" y="-37.499999" height="449.999989" fill-opacity="1"/><g clip-path="url(#c6e39d3ed0)"><path fill="#5ce1e6" d="M 242.246094 196.898438 C 257.191406 196.898438 269.347656 209.042969 269.347656 223.96875 C 269.347656 238.894531 257.191406 251.042969 242.246094 251.042969 C 227.300781 251.042969 215.144531 238.894531 215.144531 223.96875 C 215.144531 209.042969 227.300781 196.898438 242.246094 196.898438 Z M 173.027344 -9.730469 C 160.816406 -4.320312 152.335938 4.707031 148.496094 16.375 C 144.136719 29.636719 145.484375 44.351562 152.289062 57.808594 C 155.703125 64.5625 160.054688 70.773438 164.585938 77.066406 C 169.007812 83.203125 173.757812 89.472656 178.695312 95.699219 C 178.878906 95.929688 179.09375 96.117188 179.335938 96.25 C 191.925781 115.0625 198.574219 136.996094 198.574219 159.714844 C 198.574219 173.105469 196.28125 186.210938 191.75 198.679688 L 185.796875 198.679688 L 185.796875 127.589844 L 133.769531 127.589844 L 133.769531 198.679688 L 58.863281 198.679688 L 58.863281 252.019531 L 133.769531 252.019531 L 133.769531 262.738281 C 118.234375 270.222656 101.550781 274.015625 84.15625 274.015625 C 57.117188 274.015625 30.882812 264.417969 10.28125 246.996094 L 8.15625 249.113281 C 9.195312 250.347656 10.300781 251.597656 11.441406 252.832031 L 11.527344 252.917969 C 33.25 272.871094 61.472656 283.859375 90.996094 283.859375 C 106.535156 283.859375 121.625 280.875 135.851562 274.992188 C 151.734375 268.429688 166.269531 258.21875 177.890625 245.457031 C 189.566406 232.632812 198.382812 217.128906 203.386719 200.625 C 206.730469 189.628906 208.425781 178.160156 208.425781 166.535156 C 208.425781 138.289062 198.226562 111 179.714844 89.695312 C 174.882812 83.507812 170.320312 77.386719 166.152344 71.492188 C 161.28125 64.609375 157.457031 58.699219 154.636719 52.222656 C 148.296875 37.671875 149.246094 20.515625 157.058594 8.511719 C 162.722656 -0.183594 173.722656 -6.820312 186.496094 -9.246094 C 198.1875 -11.464844 212.0625 -10.421875 224.566406 -6.394531 C 252.738281 2.6875 268.621094 31.496094 275.578125 47.863281 C 286.160156 72.746094 290.203125 101.441406 287.273438 130.839844 C 285.339844 150.238281 278.878906 177.210938 259.1875 196.125 C 254.246094 193.113281 248.445312 191.378906 242.246094 191.378906 C 224.257812 191.378906 209.625 206 209.625 223.96875 C 209.625 241.941406 224.257812 256.5625 242.246094 256.5625 C 260.234375 256.5625 274.871094 241.941406 274.871094 223.96875 C 274.871094 213.835938 270.214844 204.769531 262.933594 198.789062 C 264.910156 196.859375 266.761719 194.882812 268.433594 192.878906 C 283.066406 175.410156 291.390625 150.378906 292.5 120.496094 C 293.683594 88.582031 287.21875 58.582031 273.796875 33.738281 C 266.828125 20.847656 258.386719 10.175781 248.695312 2.015625 C 238.558594 -6.515625 226.265625 -11.839844 212.15625 -13.796875 C 197.03125 -15.902344 183.867188 -14.53125 173.027344 -9.730469 " fill-opacity="1" fill-rule="nonzero"/></g><g clip-path="url(#674f0ff59d)"><path fill="#000000" d="M 242.246094 203.207031 C 230.769531 203.207031 221.46875 212.503906 221.46875 223.96875 C 221.46875 235.4375 230.769531 244.730469 242.246094 244.730469 C 253.722656 244.730469 263.027344 235.4375 263.027344 223.96875 C 263.027344 212.503906 253.722656 203.207031 242.246094 203.207031 Z M 214.648438 200.1875 L 210.625 200.1875 C 206.113281 219.210938 196.902344 236.414062 184.285156 250.511719 L 217.296875 250.511719 C 210.21875 243.871094 205.796875 234.433594 205.796875 223.96875 C 205.796875 214.878906 209.128906 206.566406 214.648438 200.1875 Z M 135.273438 321.605469 L 135.273438 283.007812 C 154.332031 276.507812 171.15625 265.195312 184.289062 250.515625 L 184.289062 321.605469 L 135.273438 321.605469 " fill-opacity="1" fill-rule="nonzero"/></g><g fill="#5ce1e6" fill-opacity="1"><g transform="translate(133.953322, 362.168619)"><g><path d="M 2.171875 -6.484375 L 2.171875 -3.90625 L 5.875 -3.90625 L 5.875 -3 L 2.171875 -3 L 2.171875 0 L 1.109375 0 L 1.109375 -7.40625 L 6.34375 -7.40625 L 6.34375 -6.484375 Z M 2.171875 -6.484375 "/></g></g></g><g fill="#5ce1e6" fill-opacity="1"><g transform="translate(143.415737, 362.168619)"><g><path d="M 5.828125 -1.84375 L 1.890625 -1.84375 L 1.078125 0 L -0.015625 0 L 3.34375 -7.40625 L 4.390625 -7.40625 L 7.75 0 L 6.640625 0 Z M 5.453125 -2.703125 L 3.859375 -6.328125 L 2.265625 -2.703125 Z M 5.453125 -2.703125 "/></g></g></g><g fill="#5ce1e6" fill-opacity="1"><g transform="translate(153.903464, 362.168619)"><g><path d="M 7.96875 0 L 7.96875 -5.390625 L 5.296875 -0.90625 L 4.796875 -0.90625 L 2.125 -5.359375 L 2.125 0 L 1.109375 0 L 1.109375 -7.40625 L 1.984375 -7.40625 L 5.0625 -2.203125 L 8.109375 -7.40625 L 8.984375 -7.40625 L 8.984375 0 Z M 7.96875 0 "/></g></g></g><g fill="#5ce1e6" fill-opacity="1"><g transform="translate(166.74835, 362.168619)"><g><path d="M 1.109375 -7.40625 L 2.171875 -7.40625 L 2.171875 0 L 1.109375 0 Z M 1.109375 -7.40625 "/></g></g></g><g fill="#5ce1e6" fill-opacity="1"><g transform="translate(172.775443, 362.168619)"><g><path d="M 1.109375 -7.40625 L 2.171875 -7.40625 L 2.171875 -0.921875 L 6.171875 -0.921875 L 6.171875 0 L 1.109375 0 Z M 1.109375 -7.40625 "/></g></g></g><g fill="#5ce1e6" fill-opacity="1"><g transform="translate(181.804482, 362.168619)"><g><path d="M 3.953125 -2.5625 L 3.953125 0 L 2.890625 0 L 2.890625 -2.578125 L -0.046875 -7.40625 L 1.09375 -7.40625 L 3.453125 -3.5 L 5.84375 -7.40625 L 6.890625 -7.40625 Z M 3.953125 -2.5625 "/></g></g></g><g fill="#5ce1e6" fill-opacity="1"><g transform="translate(191.393732, 362.168619)"><g/></g></g><g fill="#5ce1e6" fill-opacity="1"><g transform="translate(196.987438, 362.168619)"><g><path d="M 1.109375 -7.40625 L 4.234375 -7.40625 C 5.015625 -7.40625 5.707031 -7.25 6.3125 -6.9375 C 6.914062 -6.625 7.382812 -6.1875 7.71875 -5.625 C 8.0625 -5.070312 8.234375 -4.429688 8.234375 -3.703125 C 8.234375 -2.972656 8.0625 -2.328125 7.71875 -1.765625 C 7.382812 -1.210938 6.914062 -0.78125 6.3125 -0.46875 C 5.707031 -0.15625 5.015625 0 4.234375 0 L 1.109375 0 Z M 4.171875 -0.921875 C 4.765625 -0.921875 5.289062 -1.035156 5.75 -1.265625 C 6.207031 -1.503906 6.554688 -1.832031 6.796875 -2.25 C 7.046875 -2.664062 7.171875 -3.148438 7.171875 -3.703125 C 7.171875 -4.253906 7.046875 -4.738281 6.796875 -5.15625 C 6.554688 -5.570312 6.207031 -5.894531 5.75 -6.125 C 5.289062 -6.363281 4.765625 -6.484375 4.171875 -6.484375 L 2.171875 -6.484375 L 2.171875 -0.921875 Z M 4.171875 -0.921875 "/></g></g></g><g fill="#5ce1e6" fill-opacity="1"><g transform="translate(208.468762, 362.168619)"><g><path d="M 4.453125 0.078125 C 3.703125 0.078125 3.023438 -0.0820312 2.421875 -0.40625 C 1.828125 -0.738281 1.359375 -1.191406 1.015625 -1.765625 C 0.671875 -2.347656 0.5 -2.992188 0.5 -3.703125 C 0.5 -4.410156 0.671875 -5.050781 1.015625 -5.625 C 1.359375 -6.207031 1.828125 -6.660156 2.421875 -6.984375 C 3.023438 -7.316406 3.703125 -7.484375 4.453125 -7.484375 C 5.191406 -7.484375 5.859375 -7.316406 6.453125 -6.984375 C 7.054688 -6.660156 7.523438 -6.210938 7.859375 -5.640625 C 8.203125 -5.066406 8.375 -4.421875 8.375 -3.703125 C 8.375 -2.984375 8.203125 -2.335938 7.859375 -1.765625 C 7.523438 -1.191406 7.054688 -0.738281 6.453125 -0.40625 C 5.859375 -0.0820312 5.191406 0.078125 4.453125 0.078125 Z M 4.453125 -0.859375 C 4.992188 -0.859375 5.476562 -0.976562 5.90625 -1.21875 C 6.34375 -1.46875 6.6875 -1.804688 6.9375 -2.234375 C 7.1875 -2.671875 7.3125 -3.160156 7.3125 -3.703125 C 7.3125 -4.234375 7.1875 -4.71875 6.9375 -5.15625 C 6.6875 -5.59375 6.34375 -5.929688 5.90625 -6.171875 C 5.476562 -6.421875 4.992188 -6.546875 4.453125 -6.546875 C 3.910156 -6.546875 3.414062 -6.421875 2.96875 -6.171875 C 2.53125 -5.929688 2.1875 -5.59375 1.9375 -5.15625 C 1.6875 -4.71875 1.5625 -4.234375 1.5625 -3.703125 C 1.5625 -3.160156 1.6875 -2.671875 1.9375 -2.234375 C 2.1875 -1.804688 2.53125 -1.46875 2.96875 -1.21875 C 3.414062 -0.976562 3.910156 -0.859375 4.453125 -0.859375 Z M 4.453125 -0.859375 "/></g></g></g><g fill="#5ce1e6" fill-opacity="1"><g transform="translate(220.09807, 362.168619)"><g><path d="M 4.421875 0.078125 C 3.679688 0.078125 3.007812 -0.0820312 2.40625 -0.40625 C 1.8125 -0.738281 1.34375 -1.191406 1 -1.765625 C 0.664062 -2.335938 0.5 -2.984375 0.5 -3.703125 C 0.5 -4.421875 0.664062 -5.066406 1 -5.640625 C 1.34375 -6.210938 1.816406 -6.660156 2.421875 -6.984375 C 3.023438 -7.316406 3.695312 -7.484375 4.4375 -7.484375 C 5.007812 -7.484375 5.535156 -7.382812 6.015625 -7.1875 C 6.492188 -7 6.90625 -6.71875 7.25 -6.34375 L 6.5625 -5.671875 C 6 -6.253906 5.300781 -6.546875 4.46875 -6.546875 C 3.925781 -6.546875 3.429688 -6.421875 2.984375 -6.171875 C 2.535156 -5.929688 2.1875 -5.59375 1.9375 -5.15625 C 1.6875 -4.71875 1.5625 -4.234375 1.5625 -3.703125 C 1.5625 -3.160156 1.6875 -2.671875 1.9375 -2.234375 C 2.1875 -1.804688 2.535156 -1.46875 2.984375 -1.21875 C 3.429688 -0.976562 3.925781 -0.859375 4.46875 -0.859375 C 5.300781 -0.859375 6 -1.15625 6.5625 -1.75 L 7.25 -1.078125 C 6.90625 -0.691406 6.492188 -0.398438 6.015625 -0.203125 C 5.535156 -0.015625 5.003906 0.078125 4.421875 0.078125 Z M 4.421875 0.078125 "/></g></g></g><g fill="#5ce1e6" fill-opacity="1"><g transform="translate(230.490661, 362.168619)"><g><path d="M 2.578125 -6.484375 L 0.046875 -6.484375 L 0.046875 -7.40625 L 6.171875 -7.40625 L 6.171875 -6.484375 L 3.625 -6.484375 L 3.625 0 L 2.578125 0 Z M 2.578125 -6.484375 "/></g></g></g><g fill="#5ce1e6" fill-opacity="1"><g transform="translate(239.445708, 362.168619)"><g><path d="M 4.453125 0.078125 C 3.703125 0.078125 3.023438 -0.0820312 2.421875 -0.40625 C 1.828125 -0.738281 1.359375 -1.191406 1.015625 -1.765625 C 0.671875 -2.347656 0.5 -2.992188 0.5 -3.703125 C 0.5 -4.410156 0.671875 -5.050781 1.015625 -5.625 C 1.359375 -6.207031 1.828125 -6.660156 2.421875 -6.984375 C 3.023438 -7.316406 3.703125 -7.484375 4.453125 -7.484375 C 5.191406 -7.484375 5.859375 -7.316406 6.453125 -6.984375 C 7.054688 -6.660156 7.523438 -6.210938 7.859375 -5.640625 C 8.203125 -5.066406 8.375 -4.421875 8.375 -3.703125 C 8.375 -2.984375 8.203125 -2.335938 7.859375 -1.765625 C 7.523438 -1.191406 7.054688 -0.738281 6.453125 -0.40625 C 5.859375 -0.0820312 5.191406 0.078125 4.453125 0.078125 Z M 4.453125 -0.859375 C 4.992188 -0.859375 5.476562 -0.976562 5.90625 -1.21875 C 6.34375 -1.46875 6.6875 -1.804688 6.9375 -2.234375 C 7.1875 -2.671875 7.3125 -3.160156 7.3125 -3.703125 C 7.3125 -4.234375 7.1875 -4.71875 6.9375 -5.15625 C 6.6875 -5.59375 6.34375 -5.929688 5.90625 -6.171875 C 5.476562 -6.421875 4.992188 -6.546875 4.453125 -6.546875 C 3.910156 -6.546875 3.414062 -6.421875 2.96875 -6.171875 C 2.53125 -5.929688 2.1875 -5.59375 1.9375 -5.15625 C 1.6875 -4.71875 1.5625 -4.234375 1.5625 -3.703125 C 1.5625 -3.160156 1.6875 -2.671875 1.9375 -2.234375 C 2.1875 -1.804688 2.53125 -1.46875 2.96875 -1.21875 C 3.414062 -0.976562 3.910156 -0.859375 4.453125 -0.859375 Z M 4.453125 -0.859375 "/></g></g></g><g fill="#5ce1e6" fill-opacity="1"><g transform="translate(251.075021, 362.168619)"><g><path d="M 6.0625 0 L 4.46875 -2.28125 C 4.269531 -2.257812 4.113281 -2.25 4 -2.25 L 2.171875 -2.25 L 2.171875 0 L 1.109375 0 L 1.109375 -7.40625 L 4 -7.40625 C 4.957031 -7.40625 5.710938 -7.175781 6.265625 -6.71875 C 6.816406 -6.257812 7.09375 -5.628906 7.09375 -4.828125 C 7.09375 -4.253906 6.945312 -3.765625 6.65625 -3.359375 C 6.375 -2.960938 5.972656 -2.671875 5.453125 -2.484375 L 7.21875 0 Z M 3.96875 -3.15625 C 4.632812 -3.15625 5.144531 -3.296875 5.5 -3.578125 C 5.851562 -3.867188 6.03125 -4.285156 6.03125 -4.828125 C 6.03125 -5.359375 5.851562 -5.765625 5.5 -6.046875 C 5.144531 -6.335938 4.632812 -6.484375 3.96875 -6.484375 L 2.171875 -6.484375 L 2.171875 -3.15625 Z M 3.96875 -3.15625 "/></g></g></g><g fill="#5ce1e6" fill-opacity="1"><g transform="translate(52.883486, 328.669631)"><g><path d="M 48.46875 -27.109375 C 48.371094 -27.207031 48.222656 -27.207031 48.125 -27.207031 C 47.976562 -27.207031 47.875 -27.207031 47.777344 -27.160156 C 47.527344 -27.109375 47.332031 -27.011719 47.183594 -26.910156 L 46.042969 -26.316406 C 45.84375 -26.21875 45.644531 -26.117188 45.398438 -26.019531 C 44.902344 -25.773438 44.355469 -25.472656 43.863281 -25.226562 C 43.117188 -24.878906 42.324219 -24.582031 41.53125 -24.335938 C 40.789062 -24.085938 39.996094 -23.988281 39.203125 -24.085938 C 38.804688 -24.136719 38.410156 -24.234375 38.113281 -24.433594 C 37.765625 -24.632812 37.46875 -24.929688 37.21875 -25.226562 C 36.824219 -25.820312 36.527344 -26.414062 36.277344 -27.109375 C 36.230469 -27.207031 36.179688 -27.308594 36.128906 -27.40625 C 35.882812 -28.199219 35.4375 -28.945312 34.941406 -29.636719 C 34.445312 -30.28125 33.851562 -30.925781 33.207031 -31.421875 C 31.769531 -32.511719 30.183594 -33.007812 28.398438 -32.859375 C 26.664062 -32.660156 25.128906 -31.964844 23.789062 -30.828125 C 22.550781 -29.6875 21.460938 -28.398438 20.566406 -27.011719 L 19.875 -25.96875 C 19.625 -25.621094 19.378906 -25.277344 19.230469 -24.878906 C 19.179688 -24.878906 19.179688 -24.878906 19.179688 -24.878906 C 19.03125 -24.484375 18.832031 -24.1875 18.585938 -23.9375 C 18.386719 -23.691406 18.089844 -23.542969 17.792969 -23.492188 C 17.394531 -24.136719 17.148438 -24.878906 17.050781 -25.722656 C 17.050781 -25.773438 17.050781 -25.773438 17.050781 -25.773438 C 17 -25.921875 17 -26.070312 16.949219 -26.21875 C 16.898438 -26.515625 16.800781 -26.8125 16.75 -27.109375 C 16.703125 -27.257812 16.703125 -27.40625 16.652344 -27.507812 C 16.601562 -27.804688 16.503906 -28.101562 16.453125 -28.449219 C 16.304688 -29.339844 15.957031 -30.230469 15.464844 -31.023438 C 15.164062 -31.472656 14.820312 -31.769531 14.371094 -32.066406 C 13.976562 -32.3125 13.53125 -32.460938 13.035156 -32.5625 C 12.589844 -32.710938 12.09375 -32.710938 11.597656 -32.710938 C 11.101562 -32.660156 10.65625 -32.511719 10.210938 -32.3125 C 9.316406 -31.816406 8.625 -31.171875 8.078125 -30.429688 L 6.441406 -28.25 C 5.949219 -27.507812 5.453125 -26.714844 5.003906 -25.921875 C 4.707031 -25.425781 4.363281 -24.878906 4.0625 -24.382812 C 3.914062 -24.136719 3.765625 -23.886719 3.570312 -23.640625 L 3.222656 -23.046875 C 3.222656 -22.996094 3.171875 -22.945312 3.121094 -22.898438 C 3.074219 -22.75 2.972656 -22.648438 2.925781 -22.550781 C 2.925781 -22.550781 2.925781 -22.550781 2.875 -22.550781 C 2.875 -22.550781 2.875 -22.601562 2.875 -22.648438 L 2.875 -22.996094 C 2.824219 -23.839844 2.875 -24.730469 2.972656 -25.621094 L 3.074219 -27.011719 C 3.074219 -27.207031 3.074219 -27.457031 3.074219 -27.65625 C 3.074219 -27.851562 3.121094 -28.101562 3.121094 -28.347656 C 3.171875 -29.09375 3.222656 -29.886719 3.320312 -30.628906 C 3.417969 -31.667969 3.46875 -32.710938 3.519531 -33.75 C 3.570312 -34.195312 3.570312 -34.691406 3.519531 -35.136719 C 3.519531 -35.136719 3.519531 -35.136719 3.519531 -35.1875 C 3.519531 -35.632812 3.46875 -36.082031 3.320312 -36.574219 C 3.222656 -36.824219 3.074219 -37.070312 2.875 -37.269531 C 2.625 -37.46875 2.429688 -37.617188 2.179688 -37.714844 C 1.636719 -37.863281 1.140625 -37.964844 0.695312 -37.914062 L 0.59375 -37.914062 L 0.496094 -37.863281 C 0.445312 -37.816406 0.398438 -37.816406 0.296875 -37.765625 C 0.246094 -37.714844 0.199219 -37.667969 0.148438 -37.617188 C 0 -37.46875 -0.0976562 -37.367188 -0.148438 -37.21875 C -0.296875 -36.921875 -0.347656 -36.625 -0.398438 -36.378906 C -0.445312 -35.980469 -0.445312 -35.585938 -0.445312 -35.238281 C -0.445312 -35.089844 -0.445312 -34.988281 -0.445312 -34.890625 L -0.546875 -31.964844 L -0.695312 -26.117188 L -0.742188 -20.269531 L -0.742188 -18.832031 C -0.792969 -18.289062 -0.695312 -17.742188 -0.445312 -17.199219 C -0.199219 -16.703125 0.199219 -16.304688 0.695312 -16.007812 C 1.191406 -15.761719 1.734375 -15.660156 2.328125 -15.710938 C 2.925781 -15.761719 3.417969 -16.007812 3.816406 -16.453125 C 4.015625 -16.601562 4.210938 -16.851562 4.363281 -17.050781 C 4.460938 -17.199219 4.511719 -17.347656 4.609375 -17.496094 C 4.660156 -17.542969 4.707031 -17.644531 4.707031 -17.691406 L 6.195312 -20.222656 C 6.890625 -21.410156 7.632812 -22.601562 8.375 -23.789062 C 8.625 -24.285156 8.921875 -24.730469 9.21875 -25.226562 L 10.753906 -27.703125 C 11.003906 -28.152344 11.25 -28.496094 11.546875 -28.84375 C 11.84375 -29.140625 12.191406 -29.242188 12.539062 -29.09375 C 12.6875 -29.09375 12.785156 -28.945312 12.835938 -28.792969 C 12.886719 -28.597656 12.933594 -28.398438 12.984375 -28.152344 L 13.132812 -27.40625 L 13.332031 -26.714844 C 13.429688 -26.316406 13.53125 -25.921875 13.578125 -25.523438 C 13.726562 -24.980469 13.828125 -24.433594 13.976562 -23.839844 C 14.222656 -22.898438 14.570312 -21.957031 15.066406 -21.0625 C 15.3125 -20.617188 15.660156 -20.222656 16.058594 -19.875 C 16.503906 -19.527344 17 -19.328125 17.542969 -19.230469 C 18.089844 -19.179688 18.636719 -19.277344 19.128906 -19.527344 C 19.625 -19.773438 20.023438 -20.070312 20.371094 -20.417969 C 20.765625 -20.816406 21.0625 -21.164062 21.359375 -21.609375 C 21.65625 -22.003906 21.90625 -22.402344 22.203125 -22.796875 C 22.449219 -23.195312 22.699219 -23.589844 22.945312 -23.988281 C 23.691406 -25.277344 24.53125 -26.464844 25.472656 -27.605469 C 26.070312 -28.347656 26.761719 -28.992188 27.554688 -29.539062 C 28.347656 -30.132812 29.191406 -30.378906 30.082031 -30.28125 C 30.925781 -29.984375 31.667969 -29.4375 32.214844 -28.597656 C 32.757812 -27.804688 33.207031 -27.011719 33.601562 -26.070312 C 34 -25.175781 34.59375 -24.335938 35.335938 -23.640625 C 36.082031 -22.898438 36.921875 -22.402344 37.964844 -22.152344 C 38.953125 -21.90625 39.945312 -21.855469 40.9375 -22.054688 C 41.929688 -22.203125 42.871094 -22.550781 43.761719 -22.945312 C 45.546875 -23.839844 47.132812 -24.980469 48.570312 -26.316406 L 48.621094 -26.367188 C 48.621094 -26.414062 48.621094 -26.414062 48.621094 -26.414062 C 48.621094 -26.464844 48.667969 -26.515625 48.667969 -26.566406 C 48.667969 -26.613281 48.667969 -26.664062 48.667969 -26.714844 C 48.621094 -26.863281 48.570312 -26.960938 48.46875 -27.058594 Z M 48.46875 -27.109375 "/></g></g></g><g fill="#5ce1e6" fill-opacity="1"><g transform="translate(104.521805, 328.669631)"><g><path d="M 5.402344 -18.535156 C 4.957031 -18.4375 4.511719 -18.386719 4.0625 -18.4375 C 3.617188 -18.484375 3.222656 -18.585938 2.925781 -18.785156 C 2.578125 -19.03125 2.378906 -19.328125 2.230469 -19.726562 C 2.082031 -20.070312 1.984375 -20.46875 1.933594 -20.863281 C 1.882812 -21.164062 1.882812 -21.460938 1.832031 -21.757812 C 1.832031 -21.90625 1.832031 -22.003906 1.785156 -22.105469 C 1.734375 -22.5 1.734375 -22.898438 1.683594 -23.34375 C 1.683594 -23.738281 1.683594 -24.136719 1.734375 -24.53125 L 1.832031 -25.820312 L 2.03125 -28.300781 C 2.132812 -29.140625 2.179688 -29.984375 2.230469 -30.828125 C 2.230469 -30.875 2.230469 -30.925781 2.230469 -30.976562 C 2.28125 -31.769531 2.230469 -32.5625 1.984375 -33.402344 C 1.882812 -33.851562 1.585938 -34.246094 1.140625 -34.542969 C 0.644531 -34.839844 0.0976562 -34.941406 -0.445312 -34.890625 C -1.535156 -34.742188 -2.476562 -34.394531 -3.320312 -33.949219 L -3.417969 -33.851562 C -3.867188 -33.453125 -4.113281 -33.007812 -4.164062 -32.414062 C -4.164062 -32.164062 -4.113281 -31.917969 -4.015625 -31.667969 C -4.015625 -31.621094 -4.015625 -31.621094 -3.964844 -31.621094 C -3.964844 -31.570312 -3.914062 -31.519531 -3.914062 -31.472656 L -3.867188 -31.371094 C -3.816406 -31.324219 -3.765625 -31.324219 -3.765625 -31.273438 C -3.570312 -31.125 -3.371094 -31.074219 -3.171875 -31.074219 C -2.972656 -31.023438 -2.777344 -31.074219 -2.625 -31.125 L -2.28125 -31.273438 C -2.03125 -31.371094 -1.832031 -31.421875 -1.683594 -31.421875 C -1.636719 -31.421875 -1.535156 -31.421875 -1.535156 -31.421875 C -1.488281 -31.371094 -1.4375 -31.324219 -1.386719 -31.273438 C -1.339844 -31.125 -1.289062 -30.976562 -1.238281 -30.777344 C -1.191406 -30.082031 -1.191406 -29.4375 -1.238281 -28.695312 C -1.289062 -28.546875 -1.289062 -28.347656 -1.289062 -28.152344 L -1.4375 -25.523438 C -1.535156 -24.632812 -1.535156 -23.738281 -1.585938 -22.847656 C -1.585938 -21.957031 -1.488281 -21.0625 -1.289062 -20.171875 C -1.089844 -19.277344 -0.695312 -18.4375 -0.199219 -17.644531 C 0.347656 -16.800781 1.089844 -16.207031 2.132812 -15.859375 C 3.171875 -15.5625 4.261719 -15.464844 5.304688 -15.660156 C 5.847656 -15.761719 6.34375 -15.859375 6.839844 -16.007812 C 7.382812 -16.207031 7.832031 -16.40625 8.328125 -16.652344 C 11.5 -18.039062 14.472656 -20.269531 17.148438 -23.441406 C 19.824219 -26.566406 21.460938 -28.792969 22.152344 -30.132812 C 22.152344 -30.132812 22.152344 -30.132812 22.152344 -30.183594 C 22.152344 -30.230469 22.152344 -30.332031 22.152344 -30.378906 C 22.152344 -30.480469 22.105469 -30.53125 22.105469 -30.628906 C 22.054688 -30.679688 21.855469 -30.777344 21.460938 -30.875 C 20.269531 -29.042969 17.992188 -26.613281 14.671875 -23.589844 C 11.300781 -20.519531 8.226562 -18.832031 5.402344 -18.535156 Z M 1.984375 -42.277344 C 1.832031 -42.375 1.683594 -42.472656 1.535156 -42.523438 C 1.386719 -42.574219 1.289062 -42.621094 1.140625 -42.671875 C 1.089844 -42.671875 1.089844 -42.671875 1.039062 -42.671875 C 0.347656 -42.871094 -0.296875 -42.96875 -0.992188 -42.917969 C -1.683594 -42.917969 -2.328125 -42.769531 -2.925781 -42.472656 C -3.269531 -42.324219 -3.519531 -42.125 -3.765625 -41.878906 C -4.015625 -41.582031 -4.113281 -41.285156 -4.113281 -40.886719 C -4.015625 -40.492188 -3.816406 -40.195312 -3.46875 -39.945312 C -3.171875 -39.746094 -2.824219 -39.597656 -2.527344 -39.5 C -1.832031 -39.351562 -1.140625 -39.300781 -0.445312 -39.351562 C 0.199219 -39.449219 0.84375 -39.597656 1.4375 -39.945312 C 1.683594 -40.09375 1.933594 -40.292969 2.179688 -40.539062 C 2.378906 -40.789062 2.476562 -41.085938 2.429688 -41.382812 L 2.378906 -41.382812 C 2.378906 -41.730469 2.230469 -42.027344 1.984375 -42.277344 Z M 1.984375 -42.277344 "/></g></g></g><g fill="#5ce1e6" fill-opacity="1"><g transform="translate(125.484386, 328.669631)"><g><path d="M 28.84375 -31.171875 C 28.546875 -31.125 28.347656 -30.925781 28.199219 -30.679688 L 28.199219 -30.578125 L 28.152344 -30.53125 L 28.152344 -30.378906 L 28.050781 -30.183594 C 27.851562 -29.585938 27.605469 -28.945312 27.359375 -28.347656 C 26.414062 -25.96875 25.175781 -23.691406 23.640625 -21.609375 C 22.152344 -19.476562 20.371094 -17.691406 18.238281 -16.207031 C 17.148438 -15.511719 16.007812 -14.96875 14.820312 -14.621094 C 13.53125 -14.222656 12.339844 -14.273438 11.25 -14.769531 C 10.753906 -15.066406 10.40625 -15.511719 10.210938 -16.105469 C 10.011719 -16.652344 9.914062 -17.296875 9.863281 -17.941406 C 9.8125 -19.179688 9.914062 -20.46875 10.109375 -21.757812 C 10.257812 -22.75 10.40625 -23.691406 10.605469 -24.679688 C 10.65625 -24.980469 10.707031 -25.277344 10.753906 -25.574219 L 11.152344 -27.507812 C 11.25 -28.152344 11.398438 -28.792969 11.5 -29.4375 L 12.09375 -33.304688 C 12.191406 -33.851562 12.242188 -34.34375 12.339844 -34.890625 C 12.339844 -34.988281 12.339844 -35.136719 12.339844 -35.238281 C 12.390625 -35.484375 12.441406 -35.683594 12.441406 -35.929688 C 12.488281 -36.328125 12.539062 -36.773438 12.589844 -37.171875 C 12.589844 -37.269531 12.636719 -37.417969 12.636719 -37.515625 C 12.835938 -38.707031 12.785156 -39.945312 12.488281 -41.136719 C 12.292969 -41.828125 11.894531 -42.425781 11.300781 -42.820312 C 10.65625 -43.21875 10.011719 -43.414062 9.269531 -43.316406 C 8.921875 -43.265625 8.574219 -43.167969 8.277344 -43.019531 C 7.980469 -42.96875 7.683594 -42.871094 7.433594 -42.820312 C 7.535156 -43.515625 7.535156 -44.257812 7.484375 -44.953125 C 7.484375 -45.347656 7.382812 -45.746094 7.335938 -46.140625 C 7.285156 -46.339844 7.234375 -46.539062 7.136719 -46.734375 C 7.085938 -46.882812 7.039062 -47.035156 6.988281 -47.132812 C 6.9375 -47.183594 6.9375 -47.28125 6.890625 -47.332031 C 6.691406 -47.726562 6.34375 -48.023438 5.898438 -48.171875 C 5.699219 -48.273438 5.453125 -48.320312 5.253906 -48.273438 C 5.105469 -48.273438 5.003906 -48.273438 4.90625 -48.222656 C 4.808594 -48.171875 4.707031 -48.171875 4.558594 -48.125 C 4.210938 -47.875 3.867188 -47.578125 3.617188 -47.230469 C 3.519531 -47.082031 3.417969 -46.933594 3.320312 -46.785156 C 3.320312 -46.785156 3.320312 -46.734375 3.320312 -46.734375 C 3.269531 -46.6875 3.269531 -46.636719 3.222656 -46.539062 C 3.121094 -46.4375 3.074219 -46.339844 3.023438 -46.191406 C 2.625 -45.496094 2.378906 -44.703125 2.28125 -43.910156 C 2.28125 -43.464844 2.328125 -43.070312 2.429688 -42.671875 C 2.527344 -42.226562 2.726562 -41.878906 2.972656 -41.53125 C 3.417969 -40.9375 3.964844 -40.492188 4.660156 -40.242188 C 4.660156 -40.195312 4.609375 -40.144531 4.609375 -40.144531 C 4.609375 -40.09375 4.609375 -40.046875 4.558594 -39.996094 C 4.363281 -39.300781 4.113281 -38.65625 3.867188 -37.964844 C 2.726562 -35.386719 1.238281 -32.957031 -0.59375 -30.777344 L -0.546875 -30.777344 C -0.742188 -30.578125 -0.792969 -30.332031 -0.742188 -30.082031 C -0.644531 -29.886719 -0.496094 -29.6875 -0.246094 -29.585938 C 0 -29.539062 0.246094 -29.585938 0.445312 -29.738281 C 0.496094 -29.785156 0.546875 -29.835938 0.59375 -29.886719 C 0.59375 -29.933594 0.644531 -29.933594 0.644531 -29.933594 L 0.84375 -30.183594 C 1.386719 -30.777344 1.882812 -31.371094 2.328125 -31.964844 C 3.320312 -33.207031 4.164062 -34.542969 4.957031 -35.929688 C 5.648438 -37.171875 6.195312 -38.460938 6.691406 -39.847656 C 6.9375 -39.847656 7.136719 -39.847656 7.382812 -39.847656 C 7.78125 -39.847656 8.226562 -39.894531 8.625 -39.996094 C 8.722656 -40.046875 8.871094 -40.046875 9.019531 -40.09375 C 9.070312 -40.09375 9.121094 -40.09375 9.167969 -40.144531 L 9.417969 -40.195312 C 9.417969 -40.144531 9.464844 -40.046875 9.464844 -39.996094 C 9.464844 -39.847656 9.464844 -39.699219 9.464844 -39.550781 C 9.464844 -39.253906 9.417969 -38.90625 9.367188 -38.609375 C 9.269531 -37.964844 9.167969 -37.320312 9.019531 -36.722656 C 8.722656 -35.4375 8.425781 -34.195312 8.128906 -32.910156 C 8.027344 -32.460938 7.929688 -32.015625 7.832031 -31.570312 C 7.632812 -30.726562 7.433594 -29.933594 7.234375 -29.09375 C 6.988281 -27.804688 6.789062 -26.515625 6.640625 -25.226562 C 6.292969 -22.601562 6.292969 -19.972656 6.640625 -17.347656 C 6.742188 -16.652344 6.9375 -16.007812 7.136719 -15.363281 C 7.382812 -14.71875 7.730469 -14.125 8.128906 -13.578125 C 8.574219 -13.035156 9.121094 -12.589844 9.761719 -12.242188 C 10.359375 -11.894531 11.050781 -11.695312 11.746094 -11.597656 C 13.085938 -11.449219 14.421875 -11.597656 15.761719 -12.042969 C 17 -12.488281 18.1875 -13.085938 19.328125 -13.828125 C 21.558594 -15.363281 23.394531 -17.199219 24.929688 -19.429688 C 26.414062 -21.609375 27.65625 -23.886719 28.644531 -26.367188 C 28.894531 -26.960938 29.09375 -27.605469 29.289062 -28.25 C 29.390625 -28.546875 29.539062 -28.84375 29.585938 -29.140625 L 29.738281 -29.636719 L 29.835938 -29.886719 L 29.886719 -29.984375 L 29.886719 -30.035156 C 29.886719 -30.035156 29.886719 -30.082031 29.886719 -30.082031 C 29.886719 -30.082031 29.886719 -30.132812 29.886719 -30.132812 C 29.933594 -30.429688 29.835938 -30.726562 29.636719 -30.925781 C 29.4375 -31.125 29.140625 -31.222656 28.84375 -31.171875 Z M 9.566406 -40.195312 C 9.566406 -40.195312 9.566406 -40.195312 9.613281 -40.195312 C 9.613281 -40.195312 9.613281 -40.195312 9.566406 -40.195312 C 9.566406 -40.195312 9.566406 -40.195312 9.613281 -40.195312 Z M 5.054688 -44.308594 C 5.054688 -44.457031 5.105469 -44.605469 5.15625 -44.703125 C 5.203125 -44.503906 5.203125 -44.308594 5.203125 -44.109375 C 5.203125 -43.8125 5.203125 -43.464844 5.203125 -43.167969 C 5.105469 -43.21875 5.054688 -43.316406 5.003906 -43.464844 C 4.957031 -43.710938 4.957031 -44.011719 5.054688 -44.308594 Z M 5.054688 -44.308594 "/></g></g></g><g fill="#5ce1e6" fill-opacity="1"><g transform="translate(154.177848, 328.669631)"><g><path d="M 1.636719 -20.617188 C 3.914062 -21.558594 5.949219 -22.796875 7.832031 -24.335938 C 8.175781 -24.582031 8.574219 -24.878906 8.921875 -25.128906 C 9.21875 -25.277344 9.515625 -25.375 9.8125 -25.375 C 10.0625 -25.375 10.359375 -25.277344 10.554688 -25.027344 C 10.65625 -24.980469 10.707031 -24.878906 10.804688 -24.78125 C 10.804688 -24.730469 10.855469 -24.730469 10.902344 -24.679688 L 11.25 -24.234375 C 11.398438 -24.035156 11.597656 -23.839844 11.796875 -23.640625 C 11.84375 -23.542969 11.894531 -23.492188 11.945312 -23.441406 C 12.488281 -22.898438 13.035156 -22.449219 13.679688 -22.054688 C 14.324219 -21.65625 15.015625 -21.410156 15.761719 -21.359375 C 17.296875 -21.261719 18.734375 -21.507812 20.070312 -22.003906 C 21.460938 -22.402344 22.796875 -22.945312 24.085938 -23.589844 C 25.375 -24.1875 26.613281 -24.878906 27.851562 -25.621094 C 28.449219 -26.019531 29.042969 -26.414062 29.636719 -26.863281 C 30.230469 -27.257812 30.777344 -27.703125 31.273438 -28.25 L 31.324219 -28.199219 L 31.667969 -28.597656 C 31.816406 -28.746094 31.964844 -28.894531 32.066406 -29.042969 C 32.066406 -29.042969 32.117188 -29.09375 32.117188 -29.09375 C 32.117188 -29.09375 32.164062 -29.140625 32.164062 -29.191406 C 32.214844 -29.191406 32.214844 -29.242188 32.265625 -29.289062 C 32.3125 -29.390625 32.3125 -29.539062 32.3125 -29.636719 C 32.3125 -29.785156 32.265625 -29.886719 32.164062 -29.984375 C 32.066406 -30.082031 32.015625 -30.132812 31.917969 -30.183594 L 31.867188 -30.183594 C 31.71875 -30.230469 31.570312 -30.28125 31.421875 -30.230469 C 31.324219 -30.230469 31.222656 -30.230469 31.171875 -30.183594 C 31.125 -30.132812 31.074219 -30.132812 31.023438 -30.082031 C 31.023438 -30.082031 31.023438 -30.082031 30.976562 -30.082031 L 31.023438 -30.082031 C 30.875 -29.984375 30.726562 -29.933594 30.679688 -29.835938 C 30.628906 -29.785156 30.578125 -29.785156 30.53125 -29.738281 L 30.132812 -29.390625 L 29.289062 -28.746094 C 28.746094 -28.300781 28.152344 -27.851562 27.605469 -27.457031 C 26.464844 -26.613281 25.277344 -25.820312 24.035156 -25.175781 C 22.796875 -24.433594 21.460938 -23.988281 20.070312 -23.789062 C 18.636719 -23.640625 17.296875 -23.839844 16.105469 -24.53125 C 15.511719 -24.878906 15.066406 -25.375 14.71875 -26.019531 C 14.421875 -26.566406 14.175781 -27.207031 13.976562 -27.851562 C 13.976562 -27.851562 13.976562 -27.902344 13.976562 -27.953125 C 13.777344 -28.644531 13.429688 -29.289062 12.984375 -29.933594 C 12.738281 -30.28125 12.441406 -30.480469 11.992188 -30.578125 C 11.597656 -30.679688 11.199219 -30.628906 10.804688 -30.53125 C 10.109375 -30.230469 9.464844 -29.886719 8.871094 -29.488281 C 8.277344 -29.09375 7.683594 -28.644531 7.136719 -28.152344 C 7.085938 -28.101562 7.039062 -28.050781 6.9375 -28 C 6.492188 -27.605469 5.996094 -27.207031 5.5 -26.8125 C 5.351562 -26.714844 5.203125 -26.613281 5.054688 -26.515625 C 4.90625 -26.414062 4.757812 -26.316406 4.609375 -26.21875 C 4.363281 -25.96875 4.0625 -25.773438 3.765625 -25.523438 C 2.675781 -24.582031 1.488281 -23.886719 0.199219 -23.492188 C 0.148438 -23.492188 0.0976562 -23.492188 0.0507812 -23.441406 C -0.0507812 -23.441406 -0.148438 -23.394531 -0.296875 -23.394531 L -0.546875 -23.394531 C -0.59375 -23.394531 -0.59375 -23.394531 -0.644531 -23.34375 C -0.644531 -23.34375 -0.695312 -23.394531 -0.695312 -23.394531 C -0.792969 -23.394531 -0.890625 -23.441406 -0.941406 -23.492188 C -0.992188 -23.589844 -1.039062 -23.691406 -0.992188 -23.789062 C -0.992188 -23.839844 -0.992188 -23.886719 -0.941406 -23.9375 L -0.792969 -24.136719 L -0.496094 -24.582031 C -0.445312 -24.632812 -0.398438 -24.679688 -0.347656 -24.730469 C -0.199219 -24.980469 -0.0507812 -25.175781 0.148438 -25.425781 C 1.039062 -26.515625 2.03125 -27.507812 3.121094 -28.347656 C 4.261719 -29.191406 5.453125 -29.886719 6.742188 -30.429688 C 8.027344 -30.976562 9.367188 -31.324219 10.753906 -31.472656 C 12.191406 -31.667969 13.578125 -31.667969 14.96875 -31.519531 C 15.164062 -31.472656 15.414062 -31.421875 15.613281 -31.421875 C 15.761719 -31.371094 15.859375 -31.371094 16.007812 -31.324219 C 16.058594 -31.324219 16.105469 -31.324219 16.15625 -31.324219 C 16.304688 -31.273438 16.40625 -31.273438 16.503906 -31.273438 L 17 -31.125 L 17.542969 -31.023438 C 17.59375 -31.023438 17.644531 -30.976562 17.691406 -30.976562 C 17.792969 -30.925781 17.941406 -30.925781 18.140625 -30.925781 C 18.4375 -30.925781 18.683594 -31.023438 18.882812 -31.222656 C 19.082031 -31.421875 19.179688 -31.667969 19.230469 -31.964844 C 19.230469 -32.117188 19.179688 -32.214844 19.128906 -32.363281 C 19.082031 -32.511719 18.980469 -32.609375 18.882812 -32.710938 C 18.785156 -32.859375 18.636719 -32.957031 18.484375 -33.105469 C 18.140625 -33.304688 17.84375 -33.503906 17.496094 -33.703125 C 16.800781 -34 16.058594 -34.195312 15.3125 -34.296875 C 12.390625 -34.691406 9.515625 -34.496094 6.691406 -33.75 C 3.867188 -32.957031 1.289062 -31.621094 -0.941406 -29.738281 C -2.082031 -28.84375 -3.121094 -27.851562 -4.113281 -26.761719 C -4.609375 -26.265625 -5.054688 -25.671875 -5.453125 -25.027344 C -5.847656 -24.335938 -5.996094 -23.589844 -5.949219 -22.75 C -5.898438 -22.351562 -5.75 -21.957031 -5.550781 -21.609375 C -5.351562 -21.261719 -5.15625 -20.964844 -4.855469 -20.714844 C -4.210938 -20.171875 -3.46875 -19.875 -2.675781 -19.875 C -1.933594 -19.875 -1.191406 -19.921875 -0.496094 -20.070312 C 0.246094 -20.171875 0.941406 -20.371094 1.636719 -20.617188 Z M 1.636719 -20.617188 "/></g></g></g><g fill="#5ce1e6" fill-opacity="1"><g transform="translate(185.59694, 328.669631)"><g><path d="M -2.03125 -29.785156 L -2.777344 -29.042969 L -3.46875 -28.347656 C -3.667969 -28.152344 -3.816406 -28 -3.964844 -27.851562 C -4.015625 -27.753906 -4.113281 -27.65625 -4.210938 -27.605469 C -4.210938 -27.554688 -4.210938 -27.554688 -4.210938 -27.554688 C -4.460938 -27.308594 -4.660156 -27.058594 -4.855469 -26.761719 C -5.304688 -26.21875 -5.648438 -25.574219 -5.847656 -24.878906 C -6.046875 -24.136719 -6.097656 -23.441406 -5.949219 -22.699219 C -5.796875 -22.003906 -5.5 -21.3125 -5.054688 -20.714844 C -4.660156 -20.121094 -4.0625 -19.675781 -3.417969 -19.328125 C -2.03125 -18.785156 -0.695312 -18.585938 0.695312 -18.683594 C 3.46875 -18.832031 6.144531 -19.378906 8.722656 -20.320312 C 9.613281 -20.566406 10.554688 -20.863281 11.449219 -21.113281 C 13.132812 -21.558594 14.820312 -22.105469 16.503906 -22.699219 C 16.949219 -22.898438 17.347656 -23.046875 17.792969 -23.242188 C 18.636719 -23.542969 19.476562 -23.886719 20.269531 -24.234375 C 21.507812 -24.730469 22.75 -25.277344 23.988281 -25.871094 C 25.226562 -26.414062 26.414062 -27.058594 27.605469 -27.703125 C 28.25 -28.050781 28.792969 -28.398438 29.339844 -28.84375 C 29.636719 -29.042969 29.886719 -29.242188 30.132812 -29.539062 C 30.230469 -29.6875 30.332031 -29.835938 30.378906 -30.082031 C 30.378906 -30.183594 30.332031 -30.28125 30.28125 -30.378906 C 30.230469 -30.429688 30.230469 -30.480469 30.183594 -30.480469 L 30.132812 -30.53125 C 30.132812 -30.578125 30.082031 -30.578125 30.082031 -30.578125 C 30.035156 -30.578125 30.035156 -30.578125 29.984375 -30.628906 C 29.390625 -30.378906 28.894531 -30.082031 28.347656 -29.835938 C 27.65625 -29.488281 26.960938 -29.191406 26.265625 -28.84375 C 25.078125 -28.300781 23.839844 -27.753906 22.550781 -27.207031 C 20.070312 -26.21875 17.496094 -25.324219 14.917969 -24.53125 C 13.628906 -24.1875 12.339844 -23.789062 11.050781 -23.441406 C 10.804688 -23.394531 10.605469 -23.34375 10.359375 -23.242188 C 9.316406 -22.945312 8.226562 -22.699219 7.085938 -22.5 C 5.796875 -22.253906 4.460938 -22.105469 3.121094 -22.054688 C 2.429688 -22.054688 1.785156 -22.054688 1.089844 -22.054688 C 1.039062 -22.054688 1.039062 -22.054688 0.992188 -22.054688 C 0.347656 -22.105469 -0.246094 -22.152344 -0.84375 -22.253906 C -1.191406 -22.351562 -1.4375 -22.449219 -1.683594 -22.601562 C -1.933594 -22.796875 -2.132812 -22.996094 -2.230469 -23.242188 C -2.328125 -23.492188 -2.328125 -23.789062 -2.230469 -24.035156 C -2.132812 -24.335938 -1.984375 -24.632812 -1.832031 -24.878906 C -1.039062 -25.96875 -0.0976562 -26.910156 0.941406 -27.753906 C 1.933594 -28.597656 3.074219 -29.339844 4.261719 -29.933594 C 5.453125 -30.53125 6.691406 -31.023438 7.980469 -31.421875 C 8.625 -31.621094 9.269531 -31.769531 9.914062 -31.917969 C 10.554688 -32.117188 11.152344 -32.117188 11.648438 -31.917969 C 12.140625 -31.621094 12.390625 -31.171875 12.488281 -30.53125 L 12.539062 -30.230469 C 12.539062 -30.132812 12.589844 -30.035156 12.589844 -29.933594 C 12.6875 -29.738281 12.835938 -29.539062 12.984375 -29.390625 C 13.132812 -29.242188 13.382812 -29.140625 13.628906 -29.09375 C 13.828125 -29.042969 14.074219 -29.042969 14.273438 -29.09375 C 14.671875 -29.242188 15.015625 -29.488281 15.265625 -29.738281 C 15.5625 -29.984375 15.808594 -30.28125 15.957031 -30.628906 C 16.304688 -31.324219 16.40625 -32.066406 16.304688 -32.859375 C 16.105469 -33.652344 15.710938 -34.296875 15.066406 -34.742188 C 14.421875 -35.1875 13.726562 -35.4375 12.984375 -35.535156 C 12.441406 -35.585938 11.894531 -35.585938 11.347656 -35.585938 C 11.199219 -35.585938 11.050781 -35.585938 10.902344 -35.585938 L 9.863281 -35.484375 C 9.664062 -35.484375 9.417969 -35.4375 9.21875 -35.386719 C 9.070312 -35.386719 8.96875 -35.386719 8.820312 -35.335938 C 7.484375 -35.136719 6.144531 -34.792969 4.855469 -34.246094 C 2.28125 -33.15625 0 -31.667969 -2.03125 -29.785156 Z M -2.03125 -29.785156 "/></g></g></g><g fill="#5ce1e6" fill-opacity="1"><g transform="translate(214.984199, 328.669631)"><g><path d="M 48.023438 -29.886719 C 48.023438 -29.984375 47.976562 -30.035156 47.925781 -30.082031 C 47.777344 -30.230469 47.578125 -30.28125 47.332031 -30.332031 C 47.183594 -30.332031 46.882812 -30.28125 46.4375 -30.183594 C 45.992188 -30.035156 45.449219 -29.6875 44.753906 -29.140625 L 43.761719 -28.25 L 42.722656 -27.40625 C 41.332031 -26.367188 39.894531 -25.375 38.359375 -24.382812 C 36.921875 -23.492188 35.335938 -22.648438 33.703125 -21.90625 C 32.117188 -21.164062 30.480469 -20.566406 28.746094 -20.121094 C 25.472656 -19.277344 22.003906 -19.328125 18.4375 -20.320312 C 15.3125 -21.210938 12.292969 -22.75 9.367188 -24.980469 L 9.167969 -25.128906 C 7.1875 -26.8125 5.304688 -28.644531 3.570312 -30.628906 C 10.855469 -34.988281 17.050781 -40.34375 22.054688 -46.6875 C 27.257812 -53.179688 31.371094 -60.464844 34.445312 -68.542969 C 37.417969 -76.324219 39.402344 -84.5 40.292969 -92.976562 C 40.738281 -97.4375 40.9375 -101.648438 40.738281 -105.566406 C 40.589844 -110.125 40.046875 -114.039062 39.101562 -117.410156 L 39.253906 -117.460938 L 39.054688 -118.101562 C 38.011719 -121.472656 36.574219 -124.25 34.691406 -126.429688 C 33.550781 -127.71875 32.3125 -128.710938 30.976562 -129.453125 C 30.230469 -129.847656 29.488281 -130.195312 28.746094 -130.445312 C 28.050781 -130.640625 27.257812 -130.839844 26.414062 -130.941406 C 25.574219 -131.039062 24.78125 -131.089844 23.988281 -131.089844 C 23.292969 -131.039062 22.5 -130.988281 21.609375 -130.839844 C 20.121094 -130.59375 18.585938 -130.148438 17.050781 -129.550781 C 14.175781 -128.363281 11.5 -126.777344 8.96875 -124.792969 C 6.691406 -122.910156 4.511719 -120.730469 2.429688 -118.101562 C 0.546875 -115.675781 -1.238281 -113.148438 -2.824219 -110.472656 C -5.898438 -105.367188 -8.328125 -99.667969 -10.109375 -93.371094 C -11.003906 -90.449219 -11.695312 -87.425781 -12.242188 -84.351562 C -12.835938 -80.933594 -13.28125 -77.910156 -13.480469 -75.132812 C -14.074219 -68.59375 -13.878906 -62.398438 -12.886719 -56.648438 L -12.785156 -56.054688 L -12.441406 -54.320312 C -12.390625 -54.121094 -12.339844 -53.921875 -12.292969 -53.675781 C -12.292969 -53.625 -12.242188 -53.574219 -12.242188 -53.527344 C -12.140625 -53.03125 -12.042969 -52.585938 -11.894531 -52.039062 L -11.152344 -49.414062 C -11.003906 -48.816406 -10.753906 -48.222656 -10.554688 -47.628906 C -10.40625 -47.28125 -10.308594 -46.984375 -10.210938 -46.636719 C -10.160156 -46.636719 -10.160156 -46.585938 -10.160156 -46.585938 C -9.761719 -45.449219 -9.316406 -44.355469 -8.820312 -43.316406 L -7.832031 -41.183594 L -6.691406 -39.152344 C -3.765625 -33.949219 0.0507812 -29.191406 4.757812 -24.878906 L 7.085938 -22.945312 C 10.507812 -20.519531 13.878906 -18.882812 17.246094 -18.039062 C 19.277344 -17.542969 21.359375 -17.296875 23.394531 -17.296875 C 25.175781 -17.296875 26.960938 -17.445312 28.695312 -17.84375 C 32.117188 -18.585938 35.632812 -20.070312 39.203125 -22.253906 C 40.9375 -23.34375 42.523438 -24.433594 43.863281 -25.574219 C 44.605469 -26.167969 45.199219 -26.664062 45.695312 -27.109375 C 46.191406 -27.554688 46.585938 -27.953125 46.882812 -28.25 C 47.183594 -28.546875 47.429688 -28.792969 47.578125 -28.992188 C 47.777344 -29.191406 47.875 -29.390625 47.925781 -29.488281 C 48.023438 -29.636719 48.023438 -29.6875 48.023438 -29.785156 C 48.023438 -29.835938 48.023438 -29.886719 48.023438 -29.886719 Z M 35.882812 -117.308594 C 36.824219 -113.988281 37.417969 -110.023438 37.617188 -105.316406 C 37.816406 -101.550781 37.667969 -97.484375 37.21875 -93.125 C 36.378906 -84.949219 34.496094 -77.066406 31.667969 -69.433594 C 28.695312 -61.605469 24.730469 -54.566406 19.773438 -48.320312 C 14.867188 -42.125 8.921875 -36.921875 1.933594 -32.710938 C 0.84375 -34.046875 -0.0507812 -35.289062 -0.792969 -36.378906 C -1.636719 -37.617188 -2.527344 -39.101562 -3.46875 -40.789062 C -4.363281 -42.425781 -5.054688 -44.011719 -5.648438 -45.449219 C -5.898438 -45.992188 -6.097656 -46.585938 -6.292969 -47.132812 C -6.394531 -47.378906 -6.441406 -47.628906 -6.542969 -47.875 C -6.640625 -48.125 -6.691406 -48.371094 -6.789062 -48.621094 C -6.988281 -49.164062 -7.136719 -49.757812 -7.335938 -50.304688 C -8.226562 -53.476562 -8.871094 -56.847656 -9.167969 -60.414062 C -9.269531 -61.800781 -9.367188 -63.140625 -9.464844 -64.480469 C -9.464844 -64.824219 -9.464844 -65.222656 -9.515625 -65.570312 L -9.515625 -66.511719 C -9.566406 -67.898438 -9.566406 -69.335938 -9.515625 -70.773438 C -9.417969 -74.441406 -9.121094 -77.910156 -8.625 -81.082031 C -8.476562 -81.824219 -8.375 -82.617188 -8.175781 -83.363281 L -8.027344 -84.203125 C -7.929688 -84.847656 -7.78125 -85.492188 -7.632812 -86.136719 C -7.535156 -86.382812 -7.484375 -86.683594 -7.433594 -86.980469 C -7.382812 -87.027344 -7.382812 -87.078125 -7.382812 -87.078125 C -7.285156 -87.625 -7.136719 -88.121094 -6.988281 -88.613281 L -6.292969 -91.140625 C -5.253906 -94.660156 -4.0625 -97.933594 -2.824219 -100.855469 C -2.675781 -101.105469 -2.578125 -101.402344 -2.429688 -101.699219 C -2.429688 -101.75 -2.429688 -101.75 -2.378906 -101.796875 C -1.832031 -103.035156 -1.238281 -104.324219 -0.59375 -105.566406 C -0.0507812 -106.703125 0.59375 -107.894531 1.191406 -109.035156 C 1.191406 -109.035156 1.238281 -109.035156 1.238281 -109.035156 C 1.386719 -109.332031 1.535156 -109.628906 1.683594 -109.925781 L 1.734375 -109.875 L 1.832031 -110.074219 C 3.816406 -113.445312 6.246094 -116.566406 9.121094 -119.441406 C 10.707031 -121.027344 12.191406 -122.367188 13.578125 -123.355469 C 15.214844 -124.597656 16.898438 -125.585938 18.636719 -126.332031 C 20.667969 -127.222656 22.550781 -127.769531 24.234375 -127.964844 C 24.382812 -127.964844 24.53125 -127.964844 24.679688 -127.964844 C 24.78125 -127.964844 24.878906 -127.964844 24.929688 -128.015625 C 25.027344 -128.015625 25.128906 -128.015625 25.226562 -128.015625 C 25.375 -128.015625 25.523438 -128.015625 25.671875 -128.015625 C 25.773438 -128.015625 25.921875 -128.015625 26.019531 -128.015625 C 26.367188 -127.964844 26.761719 -127.964844 27.109375 -127.867188 C 27.953125 -127.769531 28.84375 -127.46875 29.738281 -126.976562 L 30.378906 -126.628906 C 30.480469 -126.527344 30.628906 -126.480469 30.726562 -126.378906 C 30.828125 -126.332031 30.875 -126.230469 30.976562 -126.183594 C 31.222656 -126.035156 31.472656 -125.785156 31.667969 -125.539062 C 31.667969 -125.539062 31.667969 -125.539062 31.71875 -125.539062 C 31.816406 -125.4375 31.917969 -125.339844 32.015625 -125.242188 C 32.117188 -125.140625 32.214844 -125.042969 32.3125 -124.894531 C 32.363281 -124.84375 32.414062 -124.746094 32.460938 -124.695312 C 32.511719 -124.644531 32.5625 -124.546875 32.609375 -124.496094 C 32.757812 -124.398438 32.808594 -124.296875 32.910156 -124.148438 C 33.007812 -124 33.105469 -123.851562 33.207031 -123.753906 C 33.355469 -123.457031 33.550781 -123.207031 33.703125 -122.910156 L 33.800781 -122.710938 C 34 -122.367188 34.195312 -122.019531 34.34375 -121.621094 L 34.445312 -121.375 C 34.644531 -121.027344 34.792969 -120.679688 34.941406 -120.285156 C 35.1875 -119.539062 35.484375 -118.746094 35.734375 -117.804688 Z M 35.882812 -117.308594 "/></g></g></g><g fill="#5ce1e6" fill-opacity="1"><g transform="translate(262.013723, 328.669631)"><g><path d="M 8.277344 -17.792969 C 8.328125 -17.792969 8.425781 -17.792969 8.523438 -17.792969 C 8.574219 -17.792969 8.574219 -17.792969 8.625 -17.792969 C 10.65625 -17.742188 12.539062 -18.140625 14.371094 -18.933594 C 16.15625 -19.726562 17.792969 -20.714844 19.328125 -21.90625 C 20.863281 -23.09375 22.351562 -24.382812 23.738281 -25.722656 C 24.433594 -26.367188 25.078125 -27.058594 25.773438 -27.753906 C 26.21875 -28.25 26.714844 -28.746094 27.160156 -29.242188 C 27.308594 -29.390625 27.457031 -29.585938 27.605469 -29.738281 L 27.753906 -29.933594 C 27.753906 -29.984375 27.753906 -30.035156 27.703125 -30.132812 C 27.703125 -30.132812 27.703125 -30.183594 27.703125 -30.230469 C 27.65625 -30.332031 27.554688 -30.378906 27.457031 -30.429688 C 27.308594 -30.53125 27.109375 -30.53125 26.960938 -30.480469 C 26.613281 -30.429688 26.414062 -30.183594 26.265625 -29.835938 C 26.265625 -29.835938 26.21875 -29.785156 26.167969 -29.785156 C 24.980469 -28.746094 23.789062 -27.753906 22.601562 -26.8125 C 21.3125 -25.820312 20.023438 -24.929688 18.683594 -24.035156 C 17.347656 -23.144531 15.957031 -22.402344 14.472656 -21.855469 C 12.984375 -21.3125 11.449219 -20.964844 9.863281 -20.816406 C 8.921875 -20.816406 7.980469 -20.914062 7.085938 -21.113281 C 6.589844 -21.210938 6.195312 -21.359375 5.796875 -21.558594 C 5.351562 -21.808594 5.003906 -22.054688 4.707031 -22.351562 C 4.0625 -23.046875 3.617188 -23.789062 3.371094 -24.730469 C 3.074219 -25.621094 3.023438 -26.515625 3.171875 -27.40625 C 3.269531 -27.851562 3.417969 -28.25 3.617188 -28.644531 C 3.867188 -29.042969 4.164062 -29.390625 4.460938 -29.6875 C 5.15625 -30.332031 5.898438 -30.875 6.742188 -31.324219 C 8.523438 -32.265625 10.011719 -33.503906 11.300781 -35.039062 C 12.539062 -36.625 13.429688 -38.410156 13.828125 -40.390625 C 13.976562 -40.886719 13.925781 -41.433594 13.828125 -41.976562 C 13.628906 -42.574219 13.332031 -43.019531 12.835938 -43.316406 C 11.84375 -43.910156 10.804688 -44.109375 9.761719 -43.863281 C 9.21875 -43.710938 8.773438 -43.515625 8.277344 -43.265625 C 7.878906 -43.019531 7.433594 -42.722656 7.085938 -42.375 C 6.292969 -41.78125 5.601562 -41.085938 4.957031 -40.34375 C 3.667969 -38.855469 2.625 -37.21875 1.734375 -35.4375 C 0.890625 -33.703125 0.199219 -31.867188 -0.347656 -30.035156 C -0.644531 -29.042969 -0.792969 -28.101562 -0.84375 -27.109375 C -0.84375 -26.070312 -0.742188 -25.128906 -0.445312 -24.136719 C -0.148438 -23.195312 0.246094 -22.300781 0.84375 -21.460938 C 1.488281 -20.667969 2.179688 -19.972656 3.023438 -19.429688 C 3.867188 -18.882812 4.757812 -18.484375 5.75 -18.238281 C 5.898438 -18.1875 6.046875 -18.140625 6.195312 -18.140625 C 6.292969 -18.089844 6.394531 -18.089844 6.441406 -18.089844 C 6.542969 -18.039062 6.640625 -18.039062 6.691406 -18.039062 C 6.839844 -17.992188 7.039062 -17.941406 7.1875 -17.941406 L 7.878906 -17.84375 Z M 7.335938 -34.542969 C 7.234375 -34.445312 7.085938 -34.394531 6.890625 -34.34375 C 6.691406 -34.246094 6.542969 -34.195312 6.34375 -34.148438 C 6.144531 -34.097656 5.996094 -34.046875 5.898438 -34 C 5.796875 -34 5.699219 -34 5.699219 -34 C 5.898438 -34.59375 6.144531 -35.1875 6.492188 -35.734375 C 6.789062 -36.277344 7.085938 -36.722656 7.335938 -37.023438 C 7.433594 -37.121094 7.484375 -37.21875 7.535156 -37.320312 C 7.929688 -37.863281 8.328125 -38.359375 8.820312 -38.855469 C 9.070312 -39.054688 9.316406 -39.300781 9.566406 -39.5 C 9.613281 -39.550781 9.664062 -39.597656 9.761719 -39.648438 C 9.8125 -39.699219 9.863281 -39.796875 9.960938 -39.847656 C 9.960938 -39.847656 10.011719 -39.894531 10.0625 -39.894531 C 10.109375 -39.945312 10.160156 -39.996094 10.210938 -40.046875 C 10.210938 -40.046875 10.257812 -40.09375 10.257812 -40.09375 C 10.359375 -40.09375 10.40625 -40.09375 10.507812 -40.09375 C 10.605469 -40.09375 10.65625 -40.046875 10.707031 -39.945312 C 10.804688 -39.894531 10.804688 -39.796875 10.804688 -39.699219 C 10.804688 -39.648438 10.804688 -39.550781 10.804688 -39.5 C 10.804688 -39.402344 10.753906 -39.300781 10.753906 -39.203125 C 10.707031 -38.558594 10.507812 -37.914062 10.160156 -37.367188 C 9.515625 -36.128906 8.574219 -35.1875 7.382812 -34.542969 Z M 7.335938 -34.542969 "/></g></g></g></svg>